<?xml version="1.0" standalone="no"?>
<!DOCTYPE svg PUBLIC "-//W3C//DTD SVG 20010904//EN"
 "http://www.w3.org/TR/2001/REC-SVG-20010904/DTD/svg10.dtd">
<svg version="1.0" xmlns="http://www.w3.org/2000/svg"
 width="1000.000000pt" height="1000.000000pt" viewBox="0 0 1000.000000 1000.000000"
 preserveAspectRatio="xMidYMid meet">
<metadata>
Created by potrace 1.11, written by Peter Selinger 2001-2013
</metadata>
<g transform="translate(0.000000,1000.000000) scale(0.100000,-0.100000)"
fill="#000000" stroke="none">
<path d="M7766 8088 c-9 -12 -16 -18 -16 -13 0 6 -7 1 -16 -10 -8 -11 -18 -19
-22 -18 -15 5 -42 -9 -39 -20 1 -7 -6 -11 -17 -9 -10 2 -15 -1 -12 -6 6 -10
-21 -27 -36 -24 -5 1 -8 -2 -8 -8 0 -5 -7 -10 -16 -10 -10 0 -14 -5 -10 -16 3
-8 2 -12 -3 -9 -5 3 -12 1 -16 -5 -4 -6 -10 -8 -14 -6 -4 3 -15 -6 -25 -19
-10 -14 -22 -22 -27 -19 -5 3 -9 0 -9 -7 0 -7 -3 -10 -6 -7 -3 3 -19 -7 -37
-23 -17 -16 -38 -27 -45 -24 -7 3 -11 1 -8 -3 6 -10 -19 -32 -59 -52 -17 -8
-40 -25 -51 -37 -12 -12 -25 -19 -28 -16 -3 4 -6 1 -6 -6 0 -7 -4 -9 -10 -6
-5 3 -10 2 -10 -4 0 -5 -9 -13 -20 -16 -11 -4 -18 -11 -15 -16 4 -5 -3 -9 -15
-9 -12 0 -18 -4 -15 -10 3 -5 0 -7 -9 -4 -9 3 -17 -2 -21 -15 -3 -12 -10 -19
-15 -16 -4 3 -13 -2 -20 -10 -7 -8 -19 -15 -27 -15 -8 0 -11 -5 -7 -12 5 -8 2
-9 -10 -5 -9 4 -15 3 -12 -2 3 -5 -1 -14 -9 -21 -8 -7 -15 -9 -15 -4 0 4 -6 0
-13 -11 -9 -11 -19 -15 -27 -10 -9 5 -11 4 -6 -4 4 -6 0 -14 -8 -17 -9 -3 -13
-10 -10 -15 3 -5 -1 -6 -9 -3 -8 3 -17 18 -21 34 -4 23 -79 136 -106 160 -3 3
-16 29 -29 57 -14 29 -32 60 -42 69 -10 9 -23 32 -30 51 -6 19 -16 32 -22 30
-18 -6 -37 -48 -37 -84 0 -26 -5 -34 -25 -39 -16 -4 -35 0 -51 11 -29 19 -67
29 -59 14 4 -5 -5 -9 -19 -9 -14 0 -28 5 -31 11 -4 6 -14 8 -22 5 -19 -8 -45
12 -36 27 3 6 1 7 -6 3 -8 -5 -17 6 -28 33 -9 23 -20 41 -26 41 -5 0 -7 -7 -4
-15 4 -8 2 -17 -4 -20 -5 -4 -7 -11 -3 -16 21 -35 -31 -81 -83 -73 -34 6 -28
-4 10 -16 l32 -10 -37 6 c-34 4 -38 3 -39 -18 0 -13 -3 -17 -6 -10 -8 21 -32
14 -28 -9 3 -15 1 -18 -8 -11 -7 5 -30 9 -53 9 -22 0 -51 6 -65 12 -22 11 -22
11 -6 -3 15 -12 17 -18 7 -33 -10 -16 -11 -16 -6 0 3 9 2 17 -2 18 -4 0 -15 2
-25 4 -9 2 -15 -1 -11 -6 10 -17 -19 -9 -33 9 -10 13 -13 13 -11 2 2 -8 10
-20 18 -27 8 -7 11 -13 5 -13 -5 0 -3 -5 5 -11 13 -9 13 -10 0 -8 -37 4 -49
-1 -43 -18 5 -16 4 -15 -9 1 -14 18 -15 18 -30 -3 -11 -16 -17 -19 -21 -9 -4
8 -6 6 -6 -5 -1 -13 -6 -17 -20 -12 -11 3 -22 1 -26 -5 -3 -5 -12 -10 -18 -10
-7 0 -4 7 6 14 16 12 16 14 2 20 -9 3 -13 2 -10 -4 3 -6 1 -10 -4 -10 -6 0
-20 -9 -32 -21 -14 -14 -19 -16 -17 -5 2 8 -1 14 -7 13 -5 -1 -10 -7 -9 -12 1
-6 -9 -11 -22 -11 -12 0 -20 4 -18 8 3 4 0 8 -5 8 -6 0 -11 -6 -11 -12 0 -7
-5 -5 -11 5 -11 18 -29 14 -29 -6 0 -7 4 -6 10 3 7 12 9 10 7 -8 -1 -13 -5
-18 -10 -13 -6 6 -19 5 -33 -1 -26 -12 -34 -34 -9 -25 8 4 17 2 20 -4 4 -5 11
-7 16 -4 5 4 9 1 9 -4 0 -6 -4 -11 -10 -11 -5 0 -10 -4 -10 -9 0 -5 11 -8 25
-8 15 0 22 4 18 11 -3 6 -2 7 2 3 14 -12 14 -36 2 -32 -7 2 -25 6 -41 10 -15
3 -26 9 -23 12 4 3 -4 14 -16 24 -22 19 -22 19 -3 34 11 8 15 15 10 15 -6 0
-14 -3 -18 -7 -8 -8 -13 -9 -40 -12 -8 0 -14 -10 -13 -22 1 -21 1 -21 19 1 16
20 24 15 19 -13 -1 -5 3 -6 8 -2 14 8 34 -32 24 -48 -10 -14 -74 -17 -65 -2 3
5 -2 3 -12 -5 -14 -11 -46 -15 -126 -15 -91 0 -107 -2 -103 -15 3 -10 0 -9 -7
3 -8 13 -16 15 -29 7 -10 -5 -21 -6 -25 -3 -3 3 -6 2 -6 -4 0 -6 -9 -9 -22 -5
-14 3 -19 2 -14 -6 4 -7 3 -12 -3 -12 -5 0 -12 6 -14 13 -4 7 -6 6 -6 -4 -1
-19 22 -31 35 -20 5 4 27 2 49 -6 27 -9 31 -12 13 -9 -16 2 -28 -1 -28 -5 0
-16 53 -9 73 9 19 17 20 16 7 -7 -11 -21 -10 -23 4 -18 9 4 16 3 16 -2 0 -4 7
-8 15 -9 8 -1 22 -3 30 -4 8 -1 15 -4 15 -8 0 -6 25 -10 70 -10 20 0 22 -2 10
-10 -20 -13 -4 -13 21 0 13 8 19 7 19 0 0 -6 5 -8 12 -4 17 11 48 13 42 3 -2
-4 0 -10 6 -14 5 -3 10 -2 10 3 0 16 32 24 44 11 8 -9 8 -10 -1 -5 -21 12 -36
-4 -18 -18 15 -11 13 -12 -12 -12 -15 1 -35 8 -43 16 -8 9 -12 11 -7 6 11 -16
8 -24 -10 -29 -10 -2 2 -4 27 -3 39 1 45 -2 46 -19 1 -15 -5 -21 -20 -22 -55
-2 -76 -8 -76 -21 0 -11 3 -12 14 -3 10 8 16 8 25 -3 8 -10 9 -16 1 -21 -6 -4
-9 -3 -8 2 3 7 -7 15 -14 12 -2 0 -14 -2 -28 -5 -19 -3 -21 -2 -10 6 12 7 10
9 -8 7 -25 -1 -27 -7 -9 -27 6 -8 1 -6 -12 5 -14 11 -21 14 -17 8 4 -7 2 -13
-4 -13 -6 0 -8 -5 -4 -12 6 -10 5 -10 -7 -1 -13 10 -16 10 -16 -2 0 -8 5 -15
10 -15 6 0 8 -2 5 -5 -8 -8 -39 6 -33 15 3 5 0 12 -6 16 -7 4 -9 3 -6 -3 4 -6
0 -13 -7 -16 -8 -3 -17 -2 -20 4 -2 5 -3 4 -1 -3 1 -7 8 -12 14 -10 6 1 11 -2
11 -8 0 -5 -10 -10 -21 -10 -19 0 -20 -2 -8 -17 11 -15 10 -14 -9 1 l-22 19 0
-34 c0 -26 3 -30 10 -19 8 12 10 10 10 -8 0 -21 2 -22 15 -8 9 8 22 13 30 10
21 -9 19 -11 -21 -24 -31 -10 -37 -10 -48 5 -7 10 -19 15 -27 12 -10 -4 -9 -6
5 -6 12 -1 16 -6 12 -17 -3 -8 -2 -12 4 -9 6 3 10 -1 10 -9 0 -10 -6 -13 -17
-9 -12 5 -14 3 -8 -8 8 -12 6 -12 -8 0 -12 9 -17 10 -17 2 0 -6 7 -14 15 -17
21 -8 19 -22 -2 -20 -10 0 -18 -3 -18 -9 0 -5 4 -9 8 -7 4 1 16 4 27 5 11 2
23 7 27 12 5 4 2 5 -4 1 -18 -10 -16 3 4 22 15 16 16 16 11 0 -10 -26 5 -31
20 -6 9 15 11 17 8 5 -3 -10 -6 -22 -6 -27 0 -5 -14 -12 -31 -15 -23 -5 -28
-10 -18 -16 8 -5 18 -4 23 1 6 6 26 10 45 10 20 0 45 7 55 15 22 17 40 20 32
6 -4 -5 -1 -11 6 -13 7 -3 5 -7 -6 -11 -10 -4 -15 -3 -11 3 3 6 0 10 -8 10 -9
0 -14 -9 -13 -22 1 -17 -4 -23 -17 -21 -12 1 -17 -4 -13 -14 3 -8 1 -11 -4 -8
-6 3 -13 -1 -16 -10 -4 -10 -14 -15 -25 -12 -10 3 -17 0 -16 -7 1 -6 -6 -10
-15 -10 -10 1 -15 -3 -12 -8 3 -5 -3 -12 -15 -15 -19 -5 -26 -15 -22 -36 1 -5
-3 -6 -9 -2 -6 4 -17 1 -26 -5 -12 -10 -12 -16 -2 -28 11 -13 10 -15 -3 -10
-11 4 -15 0 -14 -15 1 -12 -2 -28 -8 -34 -6 -9 -6 -13 1 -13 5 0 13 7 16 16 3
8 10 12 16 9 6 -4 7 1 3 11 -4 12 -3 15 6 10 13 -8 44 12 36 24 -2 4 5 16 18
26 12 10 16 12 10 4 -17 -19 -16 -31 2 -24 8 4 15 14 15 23 0 14 2 14 10 1 8
-13 11 -13 22 -1 10 10 10 12 1 7 -7 -4 -13 -2 -13 4 0 7 7 10 15 6 9 -3 19 3
25 14 10 19 40 18 40 -2 0 -6 -6 -5 -15 2 -9 8 -15 9 -15 2 0 -6 5 -14 11 -17
7 -5 5 -13 -5 -24 -9 -10 -13 -20 -10 -24 8 -8 -18 -3 -33 6 -6 4 -15 2 -19
-4 -4 -7 -3 -9 3 -6 6 4 16 0 23 -7 9 -12 6 -18 -15 -32 -14 -9 -28 -14 -31
-11 -3 3 7 13 23 22 15 9 19 13 8 9 -11 -3 -25 -7 -31 -7 -13 0 -13 -46 0 -67
8 -12 7 -13 -5 -3 -12 10 -19 8 -34 -10 -11 -12 -18 -23 -16 -25 1 -2 -1 -7
-5 -10 -4 -4 -4 -1 0 6 10 17 -2 15 -20 -3 -9 -8 -13 -19 -9 -25 3 -5 0 -7 -8
-4 -9 3 -21 -4 -29 -15 -8 -12 -17 -19 -20 -16 -3 3 -10 -1 -16 -8 -9 -11 -8
-14 5 -14 10 0 25 10 35 21 21 25 23 11 3 -24 -25 -44 -16 -46 11 -2 14 23 30
40 35 37 5 -4 9 -8 9 -11 0 -3 -4 -3 -9 1 -15 8 -6 -41 10 -61 12 -15 12 -17
0 -9 -10 5 -12 4 -7 -3 5 -8 1 -10 -9 -5 -12 4 -13 8 -5 13 8 5 9 10 2 14 -6
4 -8 14 -5 24 3 9 3 14 -1 10 -4 -3 -9 -14 -11 -25 -2 -10 -4 -18 -5 -18 -9 0
-8 -55 1 -61 8 -4 9 0 4 15 -5 15 -2 21 10 21 9 0 14 -4 10 -9 -3 -5 -1 -12 5
-16 5 -3 15 6 20 21 6 15 13 24 17 21 3 -3 2 -14 -2 -24 -5 -10 -7 -22 -6 -26
1 -5 -3 -6 -9 -2 -5 3 -10 1 -10 -5 0 -6 -4 -9 -9 -5 -5 3 -13 0 -17 -6 -4 -7
-3 -9 4 -5 6 3 13 2 17 -4 3 -6 -1 -13 -10 -16 -12 -5 -13 -9 -4 -20 7 -8 9
-17 5 -21 -3 -3 -6 -1 -6 5 0 6 -7 9 -16 5 -13 -5 -13 -7 -2 -14 10 -7 11 -9
0 -9 -7 0 -10 -4 -7 -10 3 -6 -1 -7 -9 -4 -10 4 -16 1 -16 -8 0 -17 -36 -49
-46 -40 -4 4 -4 1 0 -5 4 -7 -4 -24 -18 -40 -15 -15 -26 -31 -26 -36 0 -4 11
5 25 20 13 15 25 22 25 15 0 -7 -6 -20 -14 -28 -8 -8 -12 -23 -8 -36 5 -21 5
-21 15 3 6 13 9 27 9 32 -1 4 3 7 9 7 5 0 7 5 4 10 -10 16 1 11 16 -7 12 -14
12 -16 0 -8 -11 6 -13 3 -9 -13 3 -12 3 -21 -1 -20 -19 2 -22 -4 -10 -19 10
-11 10 -14 2 -9 -8 4 -13 2 -13 -6 0 -8 6 -20 13 -28 9 -11 8 -11 -7 0 -18 13
-19 13 -14 -1 4 -9 1 -22 -5 -29 -7 -7 -7 -10 -2 -7 6 3 11 -6 11 -19 2 -23 1
-24 -12 -7 -13 16 -13 15 -4 -10 6 -16 7 -33 4 -39 -4 -6 -2 -8 4 -4 6 3 13
-2 15 -11 2 -10 4 -6 2 9 -1 15 3 24 8 21 5 -3 7 10 4 31 -3 21 -2 34 2 31 10
-11 7 -129 -4 -137 -6 -5 -5 -8 4 -8 11 0 11 -3 0 -17 -12 -14 -12 -16 0 -8
11 6 13 3 9 -13 -4 -14 -2 -20 5 -15 6 4 8 -2 5 -15 -7 -26 -5 -27 16 -6 17
16 22 39 7 30 -5 -4 -7 3 -4 14 3 12 0 20 -6 20 -7 0 -9 5 -6 10 4 6 10 8 15
5 4 -3 6 3 3 13 -2 11 2 26 11 34 8 9 12 19 8 23 -4 4 3 2 16 -4 12 -7 28 -9
35 -4 6 4 -1 -10 -16 -30 -16 -21 -30 -49 -31 -62 -2 -14 -6 -28 -9 -32 -17
-17 -4 -22 18 -7 14 9 25 22 25 30 0 18 17 27 26 13 4 -8 3 -9 -4 -5 -7 4 -12
2 -12 -5 0 -7 -10 -24 -22 -37 l-23 -25 24 13 c13 7 35 24 48 39 l25 26 -22
-32 c-12 -18 -26 -33 -32 -33 -6 0 -8 -9 -5 -20 4 -17 2 -18 -15 -9 -13 7 -18
7 -14 1 3 -6 2 -13 -4 -17 -5 -3 -11 -1 -11 4 -1 6 -2 15 -3 20 0 5 -5 13 -10
18 -5 5 -7 -1 -3 -14 3 -16 1 -23 -10 -23 -8 0 -11 4 -8 10 3 6 -1 7 -9 4 -11
-4 -16 0 -16 12 0 16 -2 17 -10 4 -5 -8 -10 -10 -10 -5 0 10 -24 18 -135 46
-27 7 -62 18 -77 26 -15 7 -31 14 -35 14 -5 0 -16 8 -26 16 -9 9 -25 21 -35
27 -44 26 -100 73 -127 107 -18 22 -37 35 -47 33 -10 -1 -17 3 -15 9 1 7 -3
11 -10 10 -7 -2 -10 3 -7 11 7 18 -36 58 -55 51 -12 -5 -12 -3 0 12 7 10 9 15
4 10 -4 -4 -17 1 -28 10 -19 18 -20 17 -7 -6 10 -19 10 -22 -2 -15 -7 5 -19 9
-26 10 -7 2 -24 13 -37 26 -13 14 -42 33 -64 44 -23 10 -41 22 -41 27 0 4 -7
7 -15 7 -8 0 -15 5 -15 10 0 6 -6 10 -14 10 -8 0 -18 9 -21 20 -4 11 -11 18
-16 15 -5 -4 -9 1 -9 10 0 9 -4 13 -10 10 -5 -3 -10 1 -10 9 0 15 -12 21 -33
17 -5 -1 -6 3 -3 8 3 5 -9 18 -27 29 -39 23 -220 163 -225 175 -2 4 -8 7 -14
7 -6 0 -19 10 -29 22 -11 11 -19 18 -19 14 0 -4 -18 11 -41 34 -23 23 -39 43
-37 46 7 6 -69 84 -82 84 -5 0 -10 4 -10 9 0 6 -9 9 -19 8 -11 0 -17 -6 -14
-14 3 -7 0 -13 -6 -13 -6 0 -11 7 -11 15 0 8 -4 15 -10 15 -5 0 -7 7 -4 15 4
8 2 15 -3 15 -6 0 -39 26 -74 59 -35 32 -73 61 -84 64 -11 4 -32 19 -47 34
-15 16 -41 43 -59 61 -18 17 -36 32 -40 32 -5 0 -9 5 -9 11 0 24 -99 104 -136
111 -10 2 -30 14 -43 27 -36 37 -90 71 -116 73 -13 1 -22 5 -19 9 2 4 -10 9
-27 13 -17 3 -28 10 -25 15 11 18 -24 5 -40 -15 -15 -18 -15 -18 -5 3 15 29
14 38 -2 24 -14 -11 -27 -5 -27 13 0 6 5 4 10 -4 7 -10 10 -11 10 -2 0 7 -7
15 -15 18 -8 4 -12 10 -9 15 3 5 0 9 -6 9 -17 0 -40 26 -32 35 4 5 1 5 -6 1
-10 -6 -10 -11 -2 -21 8 -10 8 -15 0 -20 -8 -5 -8 -10 0 -20 8 -10 6 -17 -10
-28 -13 -9 -17 -17 -11 -22 6 -3 11 0 11 7 0 10 2 10 9 -1 6 -9 11 -10 15 -2
4 6 2 11 -5 11 -8 0 -8 4 2 16 10 13 10 17 0 24 -9 5 -10 10 -2 14 6 4 14 -1
17 -11 3 -10 13 -31 21 -47 9 -16 11 -26 5 -22 -6 3 -13 0 -16 -6 -3 -7 -3 -2
1 12 5 22 4 23 -10 11 -9 -7 -14 -18 -10 -24 4 -6 1 -7 -7 -2 -10 6 -12 3 -7
-11 7 -18 6 -18 -6 -2 -8 10 -18 14 -22 10 -5 -4 -5 -2 -2 4 4 7 0 15 -9 18
-12 4 -15 2 -10 -9 3 -8 1 -15 -5 -15 -6 0 -8 -4 -5 -8 2 -4 -5 -9 -17 -9 -20
-2 -20 -1 -4 8 20 11 23 30 4 26 -6 -1 -11 5 -9 13 3 12 0 11 -15 -2 -11 -10
-29 -15 -48 -12 -28 5 -29 4 -10 -8 26 -16 26 -44 1 -40 -11 2 -15 -1 -11 -7
3 -7 0 -8 -9 -5 -9 3 -16 10 -16 16 0 5 4 7 8 4 5 -3 9 1 9 9 0 9 -5 11 -11 6
-6 -4 -19 -11 -29 -14 -15 -6 -16 -4 -7 16 l11 22 -20 -23 c-18 -20 -21 -21
-29 -6 -8 15 -10 15 -15 0 -4 -10 -3 -15 3 -11 6 3 10 1 10 -4 0 -6 -5 -11
-11 -11 -5 0 -8 -4 -5 -8 2 -4 0 -14 -6 -22 -8 -12 -9 -12 -4 3 3 9 1 17 -4
17 -5 0 -7 8 -3 18 3 9 3 14 -2 10 -4 -4 -8 -17 -9 -30 -1 -18 -7 -22 -38 -23
-20 0 -35 2 -33 6 2 3 -2 6 -10 6 -8 0 -13 -5 -12 -10 1 -5 -4 -12 -11 -14 -8
-3 -10 2 -6 14 5 14 2 14 -13 -4 -13 -16 -22 -20 -32 -13 -9 5 -22 5 -34 -2
-13 -7 -17 -7 -13 0 4 7 -5 6 -23 -1 -17 -6 -28 -15 -25 -19 3 -4 0 -8 -5 -8
-6 0 -11 5 -11 11 0 6 -6 9 -12 7 -7 -3 -13 -10 -13 -15 0 -6 -4 -15 -9 -20
-5 -4 -6 -3 -2 4 3 6 2 14 -4 18 -5 3 -10 2 -10 -2 0 -5 -9 -9 -19 -9 -11 0
-17 4 -14 9 3 5 -3 5 -13 -1 -11 -5 -25 -7 -33 -4 -10 3 -11 0 -5 -9 6 -11 5
-12 -7 -3 -8 6 -27 9 -43 8 -16 -2 -50 7 -75 18 -53 25 -74 30 -65 17 3 -5 0
-9 -5 -9 -6 0 -11 5 -11 10 0 6 -7 10 -16 10 -9 0 -12 -5 -8 -12 6 -10 4 -10
-7 -2 -20 16 -59 24 -59 13 0 -6 -8 -5 -20 1 -11 6 -20 7 -20 1 0 -5 -7 -12
-16 -15 -13 -5 -14 -3 -6 7 8 10 5 12 -16 11 -14 0 -28 -6 -30 -13 -3 -9 -10
-7 -24 6 -13 11 -18 13 -16 4 2 -7 -3 -16 -11 -19 -10 -3 -11 0 -5 9 7 12 5
12 -9 0 -15 -12 -17 -11 -18 5 -1 14 -3 13 -9 -6 -6 -19 -8 -20 -9 -6 -1 13
-7 17 -20 13 -15 -4 -18 -1 -13 12 5 14 4 14 -11 2 -11 -9 -17 -10 -17 -2 0 6
-7 11 -15 11 -8 0 -15 -5 -15 -11 0 -5 -5 -7 -12 -3 -8 5 -9 2 -5 -10 4 -10 3
-15 -3 -11 -6 3 -10 14 -10 23 0 15 -2 15 -10 2 -9 -13 -10 -13 -10 0 0 13 -1
13 -10 0 -7 -11 -10 -11 -10 -2 0 7 -5 10 -10 7 -6 -4 -7 -11 -4 -17 5 -7 2
-8 -5 -4 -7 5 -10 15 -7 23 3 8 1 11 -4 8 -6 -3 -10 -15 -10 -26 0 -11 -4 -18
-8 -15 -5 3 -9 -1 -9 -8 0 -7 6 -13 13 -13 7 0 11 4 8 9 -3 4 0 8 5 8 6 0 11
-5 11 -12 0 -6 3 -9 6 -5 5 5 44 -28 44 -38 0 -2 -10 -9 -21 -16 -15 -8 -19
-8 -15 0 4 6 0 11 -9 11 -9 0 -14 -4 -11 -9 4 -5 -2 -8 -11 -6 -10 1 -24 -2
-31 -8 -9 -7 -11 -6 -6 7 7 19 -11 22 -20 4 -5 -10 -7 -10 -12 -1 -4 10 -8 10
-19 0 -7 -7 -10 -16 -7 -21 3 -5 0 -6 -6 -2 -6 3 -13 2 -17 -4 -4 -6 -11 -8
-16 -5 -5 4 -9 1 -9 -5 0 -7 -6 -10 -14 -7 -8 3 -16 1 -18 -5 -4 -11 -28 -17
-80 -21 -19 -1 -24 -5 -18 -13 7 -8 -1 -10 -30 -7 -26 3 -40 0 -40 -8 0 -6 -7
-9 -15 -5 -8 3 -15 0 -15 -7 0 -8 -4 -6 -10 3 -6 9 -10 10 -10 3 0 -7 -10 -10
-24 -7 -14 2 -28 -1 -32 -7 -5 -8 -3 -9 6 -4 9 5 11 4 6 -4 -6 -9 -11 -9 -24
1 -13 11 -14 11 -7 -1 6 -11 4 -13 -8 -8 -9 3 -18 1 -21 -6 -3 -8 -5 -8 -5 2
-1 11 -4 11 -18 0 -15 -12 -16 -12 -8 1 6 12 5 13 -6 3 -7 -7 -17 -13 -22 -13
-4 0 -5 6 -1 13 9 13 -26 -11 -38 -28 -5 -6 -8 -6 -8 1 0 7 -7 15 -16 18 -14
6 -15 4 -4 -9 11 -13 11 -16 -1 -13 -8 2 -17 8 -21 13 -4 6 -8 1 -8 -10 0 -17
-2 -17 -10 -5 -5 8 -10 10 -10 4 0 -6 -12 -10 -26 -8 -20 2 -24 -1 -20 -13 5
-13 4 -14 -9 -3 -12 10 -15 10 -15 0 0 -10 -3 -10 -15 0 -13 11 -14 10 -9 -3
4 -12 1 -14 -17 -10 -17 5 -20 3 -14 -7 5 -9 4 -11 -4 -6 -6 4 -9 11 -6 16 3
5 1 12 -5 15 -6 4 -10 3 -9 -2 3 -20 -2 -25 -16 -13 -13 11 -14 10 -8 -6 6
-16 5 -17 -9 -6 -13 10 -18 10 -24 1 -5 -8 -3 -10 7 -4 8 5 11 4 7 0 -5 -5
-28 -9 -52 -10 -24 0 -51 -7 -59 -14 -11 -9 -17 -9 -22 -1 -5 8 -14 6 -28 -7
-11 -10 -17 -12 -13 -5 11 19 -12 14 -24 -5 -9 -14 -10 -14 -7 -2 3 9 -1 16
-9 16 -8 0 -14 -5 -14 -10 0 -5 -7 -4 -15 3 -12 10 -15 9 -15 -6 0 -16 -2 -16
-9 -4 -6 8 -7 19 -3 25 3 5 -1 4 -9 -2 -12 -10 -18 -10 -29 0 -12 10 -12 9 -1
-6 20 -26 8 -30 -17 -7 -14 14 -22 16 -22 8 0 -9 -3 -9 -10 2 -8 12 -10 12
-10 1 0 -8 -7 -4 -18 9 -15 18 -22 21 -38 12 -14 -7 -24 -6 -39 4 -10 8 -14
14 -9 14 6 0 16 -6 24 -12 12 -11 12 -10 2 3 -15 20 -57 22 -73 3 -11 -14 -42
-8 -33 7 3 5 -2 6 -12 2 -15 -5 -15 -7 0 -15 9 -5 14 -14 10 -19 -3 -5 0 -17
8 -26 7 -9 8 -14 2 -10 -7 4 -14 -2 -17 -13 -3 -11 0 -23 5 -27 7 -3 8 -1 4 5
-4 7 -2 12 5 12 6 0 9 -8 6 -20 -4 -15 0 -20 15 -20 10 0 17 -4 14 -8 -3 -5 6
-15 20 -23 30 -15 55 -52 29 -43 -8 4 -15 1 -15 -6 0 -9 -4 -9 -17 1 -11 10
-14 10 -9 1 5 -8 -2 -16 -21 -23 -22 -8 -25 -12 -13 -20 13 -9 13 -10 0 -7
-21 3 -60 -12 -60 -23 0 -5 5 -9 10 -9 6 0 10 5 10 10 0 6 4 10 8 10 5 0 9 -7
9 -15 0 -8 -4 -12 -9 -9 -4 3 -8 -2 -8 -11 0 -9 4 -14 9 -11 5 3 11 -1 14 -9
4 -10 1 -12 -11 -9 -9 2 -7 -1 6 -7 19 -10 26 -25 24 -50 0 -3 13 -4 29 -3 16
1 31 -2 34 -6 3 -5 -5 -7 -17 -5 -21 4 -21 3 -6 -9 20 -14 14 -28 -8 -19 -8 3
-14 0 -14 -7 0 -7 -6 -10 -14 -7 -8 3 -20 -1 -26 -8 -7 -8 -16 -12 -21 -9 -5
3 -12 -2 -15 -11 -5 -12 -9 -13 -20 -4 -12 10 -13 9 -8 -5 8 -21 20 -20 33 2
9 15 10 15 8 -5 0 -12 -4 -21 -7 -20 -3 1 -17 -9 -30 -22 -24 -22 -24 -23 -3
-17 12 4 24 2 29 -5 4 -7 3 -9 -2 -6 -5 3 -10 -3 -10 -13 0 -11 2 -17 5 -15 2
3 11 -1 20 -8 14 -10 14 -10 4 4 -10 13 -10 16 2 16 7 0 14 -3 13 -6 -3 -31 4
-36 50 -36 26 1 53 -3 60 -9 10 -7 13 -6 10 6 -1 9 0 16 3 15 3 -1 13 4 23 12
15 12 16 12 10 -5 -5 -18 -5 -18 10 0 9 11 16 16 16 10 0 -5 5 -2 10 6 8 13
10 13 10 -2 0 -9 4 -19 9 -22 5 -4 7 2 4 13 -3 11 2 21 14 26 25 12 54 14 47
4 -2 -4 -12 -5 -22 -2 -15 6 -14 3 3 -18 11 -13 16 -21 11 -17 -9 7 -36 -13
-30 -23 2 -3 -7 -5 -19 -4 -27 3 -39 -3 -31 -16 4 -6 11 -6 20 2 8 7 14 7 14
1 0 -17 -31 -23 -49 -10 -10 8 -8 3 4 -11 11 -14 14 -21 7 -17 -6 4 -12 2 -12
-3 0 -6 -5 -11 -11 -11 -5 0 -7 6 -3 13 4 7 3 9 -2 4 -5 -5 -9 -14 -9 -20 0
-7 -8 -11 -17 -11 -14 1 -15 -2 -8 -17 9 -15 7 -17 -6 -12 -13 5 -15 2 -9 -18
7 -23 7 -23 -8 -4 -17 22 -19 2 -2 -25 5 -9 -1 -7 -14 4 -21 19 -21 19 -15 1
6 -14 4 -16 -6 -10 -10 6 -12 3 -7 -14 4 -18 3 -20 -9 -10 -12 10 -13 9 -8 -6
5 -13 4 -16 -4 -11 -8 5 -10 1 -5 -10 4 -12 3 -15 -5 -10 -8 5 -10 2 -6 -8 3
-9 9 -14 13 -11 4 2 8 -2 8 -9 0 -8 -7 -12 -15 -9 -12 5 -12 2 -3 -15 14 -26
14 -35 1 -27 -6 3 -7 -1 -4 -9 3 -9 13 -16 21 -16 8 0 11 5 7 12 -4 7 -3 8 5
4 9 -6 9 -11 -1 -24 -11 -13 -11 -14 1 -7 10 6 13 4 9 -6 -4 -9 1 -15 11 -15
10 0 18 6 18 13 0 7 -5 9 -11 6 -6 -3 -5 0 2 8 11 12 14 12 22 -1 5 -8 7 -17
4 -21 -2 -4 1 -11 7 -15 8 -5 9 -3 4 6 -6 10 -4 12 9 7 12 -5 16 -3 13 5 -2 7
-10 12 -16 10 -7 -1 -10 2 -6 8 5 8 11 8 20 0 7 -6 25 -9 39 -6 15 3 24 1 21
-5 -4 -5 -10 -7 -15 -4 -14 9 -34 -24 -22 -37 14 -18 13 -30 -5 -50 -9 -10
-12 -18 -6 -18 5 0 16 11 23 25 12 22 15 24 23 9 6 -10 5 -20 -3 -27 -8 -9
-10 -7 -5 8 5 16 5 17 -3 5 -7 -9 -7 -19 -2 -26 6 -6 6 -15 2 -19 -4 -5 -1 -5
6 -1 7 4 10 12 7 17 -3 5 2 6 11 2 15 -6 15 -8 -5 -24 -21 -17 -21 -18 -2 -16
11 0 17 5 15 9 -3 4 2 8 11 8 9 0 13 -5 9 -11 -4 -7 -1 -10 7 -7 8 3 20 -2 27
-11 11 -14 11 -14 7 0 -4 12 1 15 25 13 17 -1 27 2 24 8 -3 5 2 8 12 6 13 -2
18 2 16 12 -2 8 0 12 4 7 4 -4 18 0 32 9 13 9 22 12 19 8 -3 -5 1 -15 9 -22
10 -10 14 -10 14 -1 0 7 3 9 6 6 4 -4 1 -13 -5 -21 -8 -10 -9 -16 -1 -21 7 -4
7 -13 -1 -27 -6 -11 -7 -18 -2 -15 8 5 35 -18 28 -25 -2 -2 21 -4 51 -5 36 -1
54 2 54 10 0 7 4 6 10 -3 9 -13 10 -13 11 0 1 8 1 18 1 21 -1 3 5 6 13 6 8 0
12 -4 9 -8 -2 -4 0 -10 5 -13 5 -3 11 0 14 7 3 9 19 13 44 11 51 -3 50 -2 50
-20 0 -15 -1 -15 -12 0 -7 8 -15 13 -18 9 -4 -3 -2 -12 4 -19 7 -9 7 -19 -1
-34 -12 -23 -5 -28 46 -34 16 -2 29 -5 29 -6 0 -1 8 -3 18 -5 9 -2 17 3 17 10
0 7 7 16 16 19 26 10 29 7 8 -9 -12 -9 -14 -14 -6 -15 7 0 11 -4 8 -9 -3 -4
10 -1 28 8 19 9 32 19 30 23 -3 4 5 5 16 3 11 -2 24 3 30 13 6 10 10 12 10 4
0 -10 5 -10 20 -2 15 8 20 8 20 -1 0 -8 4 -9 13 0 10 8 17 7 26 -2 10 -9 11
-9 6 4 -9 23 10 32 25 14 7 -8 17 -12 24 -9 6 3 3 -1 -6 -9 -16 -13 -14 -14
22 -11 27 2 40 -1 38 -9 -3 -13 4 -17 25 -17 8 0 7 4 -3 10 -9 6 -10 10 -3 10
7 0 17 -8 22 -17 10 -17 10 -17 11 -1 0 9 -8 22 -17 27 -10 6 -13 11 -7 11 6
0 17 -7 24 -15 14 -17 35 -21 25 -5 -9 15 4 12 21 -4 19 -19 18 -32 -1 -16
-10 9 -15 9 -15 1 0 -11 15 -16 35 -11 29 7 67 6 72 -3 3 -6 1 -7 -5 -3 -7 4
-12 2 -12 -3 0 -16 43 -7 48 10 3 11 2 12 -6 1 -8 -11 -10 -11 -15 1 -6 16 9
17 31 3 19 -11 30 3 12 15 -12 9 -11 9 5 3 11 -4 36 -7 55 -7 19 -1 38 -6 42
-11 5 -7 8 -4 8 6 0 11 5 15 14 12 8 -3 17 -1 21 5 12 20 26 11 20 -11 -5 -17
-4 -19 4 -9 8 13 12 13 27 0 16 -12 17 -12 9 1 -8 13 -7 13 9 1 15 -13 19 -13
27 0 7 12 9 12 9 -2 0 -9 7 -16 15 -16 11 0 12 3 3 14 -9 11 -8 13 3 11 8 -2
17 -7 20 -12 4 -5 10 1 14 12 5 18 9 19 20 9 7 -6 11 -15 8 -19 -2 -4 3 -5 11
-2 14 5 14 8 1 21 -8 8 -15 17 -15 21 0 3 5 1 12 -6 18 -18 33 -15 18 4 -11
12 -11 15 1 12 8 -2 13 3 11 10 -1 8 2 11 8 7 6 -3 8 -10 5 -15 -3 -5 -1 -11
5 -15 9 -6 15 16 10 40 -1 5 7 2 17 -7 10 -9 25 -18 33 -20 8 -2 23 -12 32
-22 11 -12 18 -14 18 -6 0 10 3 10 15 0 18 -15 49 -5 39 11 -4 8 -3 9 5 5 9
-6 9 -11 0 -22 -17 -20 18 -46 43 -33 13 7 18 6 18 -3 0 -6 7 -3 16 8 8 10 12
13 9 6 -6 -11 -3 -12 12 -3 11 6 24 7 28 3 5 -4 6 0 2 9 -4 13 -1 16 14 12 10
-3 17 -9 14 -13 -3 -5 4 -6 15 -3 13 3 20 0 21 -8 0 -8 4 -5 9 6 8 18 9 18 9
2 1 -10 6 -15 11 -12 9 6 14 -8 11 -27 0 -5 4 -8 10 -8 6 0 9 7 6 14 -4 10 -1
13 8 10 8 -3 14 -9 13 -12 -2 -20 3 -25 12 -12 7 11 10 11 10 2 0 -7 5 -10 10
-7 6 3 10 2 10 -3 0 -6 7 -13 16 -16 12 -5 14 -3 8 7 -5 7 1 1 14 -13 12 -14
20 -30 18 -35 -2 -6 7 -12 21 -13 14 -1 32 -10 41 -20 10 -10 13 -11 7 -3 -8
12 -6 13 8 8 9 -3 17 -2 17 4 0 5 6 4 14 -3 12 -11 12 -14 0 -21 -23 -13 34
-85 68 -85 16 1 25 5 21 11 -3 6 -1 7 6 3 9 -6 9 -11 -1 -24 -11 -13 -10 -15
5 -9 11 4 17 2 17 -7 0 -16 51 -29 64 -16 4 4 0 7 -9 7 -10 -1 -20 5 -22 13
-4 13 -3 13 6 0 8 -12 13 -12 22 -3 9 9 9 16 -2 30 -13 17 -13 17 4 4 10 -8
16 -20 13 -27 -3 -7 0 -15 7 -18 8 -3 8 -5 -2 -5 -11 -1 -11 -4 -1 -16 11 -13
10 -15 -6 -10 -13 4 -12 2 4 -6 12 -7 22 -21 23 -33 0 -12 3 -15 6 -8 3 8 15
1 36 -20 17 -18 28 -25 24 -15 -3 9 -2 17 3 17 6 0 10 -12 10 -26 0 -16 4 -23
11 -18 8 5 8 1 0 -14 -10 -19 -9 -20 11 -17 23 4 23 4 3 -11 -19 -15 -19 -15
8 -9 23 6 27 4 27 -13 0 -20 25 -36 41 -26 5 3 12 -8 15 -25 4 -17 13 -36 20
-42 8 -6 11 -16 7 -23 -4 -6 1 -5 10 3 15 12 17 12 11 -3 -4 -9 1 -23 13 -34
10 -9 12 -12 3 -7 -13 9 -13 8 -1 -8 8 -10 20 -16 27 -13 8 3 13 2 13 -2 -4
-27 6 -41 44 -60 23 -12 36 -22 30 -22 -7 0 -13 -5 -13 -11 0 -5 5 -7 10 -4 9
6 14 -10 13 -42 0 -6 5 -9 12 -7 7 3 16 1 20 -5 9 -16 42 -13 70 5 25 16 25
16 31 -15 4 -17 12 -35 18 -41 7 -5 48 -8 92 -7 47 2 92 -2 111 -9 18 -7 33
-9 33 -5 0 12 62 41 73 34 5 -3 4 -9 -2 -13 -7 -4 -13 -16 -14 -28 0 -11 -5
-18 -9 -16 -5 3 -5 10 -2 16 4 7 2 8 -5 4 -6 -4 -9 -12 -6 -17 4 -5 1 -9 -5
-9 -6 0 -8 -5 -4 -12 5 -8 2 -9 -10 -5 -11 5 -15 3 -10 -5 5 -7 2 -9 -7 -6
-11 4 -14 -3 -15 -28 0 -18 3 -31 8 -28 5 3 6 9 4 13 -3 3 4 7 14 7 12 0 16
-4 10 -11 -6 -7 0 -11 16 -13 17 -1 23 2 18 11 -5 9 -4 9 6 0 7 -6 19 -9 27
-6 8 3 19 0 24 -8 5 -8 9 -9 9 -3 0 19 24 11 55 -19 17 -16 22 -25 13 -21 -21
7 -24 -6 -6 -24 9 -9 8 -12 -5 -12 -9 0 -16 -3 -15 -7 0 -5 -2 -16 -5 -25 -20
-53 -20 -63 1 -63 9 0 23 -6 30 -15 11 -13 11 -12 3 7 -13 26 -14 43 -2 24 12
-18 44 -24 38 -7 -3 8 3 12 16 11 12 -1 25 3 29 9 5 7 8 6 8 -3 0 -11 3 -11
18 0 14 11 15 11 5 -1 -27 -29 -12 -32 19 -4 18 16 25 20 15 8 -22 -27 -22
-29 9 -32 15 -1 23 2 19 8 -10 16 18 7 32 -10 11 -13 12 -13 7 3 -4 12 -2 17
7 15 8 -2 13 3 11 11 -3 12 -1 12 14 0 16 -12 17 -12 11 4 -4 10 -3 16 2 12 5
-3 12 1 14 7 4 10 6 10 6 1 1 -7 -7 -21 -16 -31 -21 -21 -51 -60 -39 -50 5 4
16 2 24 -5 9 -6 13 -7 10 -2 -4 6 2 11 13 11 10 0 19 -5 19 -11 0 -5 7 -2 14
8 11 14 15 15 20 5 3 -7 4 -3 2 10 -2 12 0 22 5 22 5 0 9 -4 9 -8 0 -15 29 -9
35 6 4 12 8 12 22 1 12 -10 14 -10 9 -1 -5 8 1 12 19 12 15 0 24 4 20 10 -3 6
-2 10 4 10 5 0 12 -6 14 -12 4 -9 6 -8 6 2 1 8 12 20 25 26 20 9 23 9 19 -2
-4 -10 0 -12 13 -8 16 6 17 5 7 -7 -16 -16 -17 -29 -2 -29 5 0 7 6 3 13 -6 9
-5 9 8 0 8 -7 19 -9 23 -5 5 4 5 1 0 -7 -6 -10 -2 -12 16 -7 l24 6 -22 -11
c-13 -7 -23 -16 -23 -21 0 -5 -10 -13 -22 -19 -13 -5 -38 -21 -57 -34 -24 -18
-37 -22 -46 -15 -9 8 -18 6 -29 -5 -9 -9 -21 -13 -27 -9 -8 4 -9 3 -5 -4 6
-11 -6 -16 -26 -13 -5 0 -8 -4 -8 -9 0 -6 5 -10 12 -10 6 0 8 -3 5 -6 -4 -4
-13 -1 -22 6 -8 7 -15 8 -15 3 0 -5 -8 -9 -17 -10 -32 -2 -77 -14 -89 -24 -6
-5 -13 -7 -15 -5 -2 3 -15 -5 -29 -16 l-25 -20 26 15 c25 15 28 15 44 -3 17
-19 17 -20 -3 -20 -11 0 -29 -11 -40 -25 -11 -13 -23 -21 -27 -17 -5 4 -5 2
-2 -5 4 -6 -12 -26 -40 -46 -45 -33 -93 -87 -93 -103 0 -4 12 9 28 29 15 20
37 44 49 52 20 14 22 14 28 -5 3 -11 4 -24 1 -29 -6 -9 18 -34 25 -26 3 2 5
-5 5 -16 0 -18 -2 -18 -12 -5 -6 9 -15 12 -19 8 -5 -4 -5 -1 -1 6 4 6 2 12 -3
12 -6 0 -11 -5 -11 -11 0 -5 -4 -7 -10 -4 -6 3 -10 -2 -10 -11 0 -10 -8 -26
-17 -36 -13 -15 -14 -21 -4 -31 10 -9 11 -9 6 4 -4 10 -1 20 6 25 8 5 11 2 6
-8 -3 -9 -1 -21 4 -27 5 -6 6 -9 3 -6 -4 2 -16 0 -27 -6 -14 -8 -18 -8 -13 0
4 6 2 11 -4 11 -6 0 -10 -6 -9 -12 3 -17 -12 -51 -25 -60 -7 -5 -5 -8 4 -8 13
0 13 -1 0 -10 -13 -8 -13 -11 -1 -22 9 -8 11 -9 7 -1 -3 6 -2 14 4 18 6 4 8
11 5 16 -4 5 -1 9 5 9 7 0 9 7 6 16 -4 10 -2 13 6 8 7 -4 8 -3 4 5 -4 6 -4 11
1 10 4 -1 10 0 13 1 3 1 13 3 23 5 14 3 16 0 8 -9 -6 -7 -7 -17 -3 -21 4 -5 2
-6 -3 -2 -6 3 -16 3 -22 -1 -7 -5 -3 -11 13 -19 19 -9 24 -8 24 3 0 7 10 18
23 24 19 10 20 10 5 -3 -15 -12 -29 -56 -31 -94 0 -7 -5 -13 -10 -13 -5 0 -6
7 -3 16 3 8 2 12 -4 9 -6 -3 -10 -2 -10 3 0 6 -7 13 -16 16 -14 5 -15 4 -5 -8
7 -8 8 -16 4 -18 -4 -3 -3 -3 4 -2 13 3 26 -23 18 -36 -10 -17 -14 -80 -4 -80
6 0 7 5 4 10 -3 6 -2 10 3 10 5 0 8 14 7 30 -1 17 2 33 6 36 4 2 6 -9 4 -25
-3 -25 -1 -29 13 -24 14 5 13 3 -2 -9 -13 -10 -17 -23 -14 -41 3 -16 0 -28 -8
-31 -7 -3 -11 -13 -9 -23 1 -10 -3 -24 -9 -32 -9 -12 -8 -12 11 0 16 9 19 16
10 21 -8 5 -7 8 5 8 13 0 16 8 13 40 -2 22 1 40 7 40 5 0 6 -10 3 -21 -4 -13
-3 -19 2 -16 6 4 7 -10 3 -36 -10 -57 -20 -78 -34 -70 -6 4 -5 -1 3 -10 11
-14 11 -17 0 -17 -12 0 -12 -2 -1 -9 8 -5 15 -20 15 -35 1 -14 5 -26 9 -26 11
0 2 -54 -11 -58 -13 -4 -14 4 -2 27 7 13 6 18 -4 18 -8 0 -12 -4 -9 -9 3 -5
-2 -20 -10 -33 -9 -14 -14 -25 -10 -25 4 0 1 -7 -6 -14 -7 -10 -8 -21 -3 -31
8 -14 11 -12 21 10 6 14 15 25 20 25 14 0 10 -29 -5 -34 -18 -7 -17 -26 1 -26
8 0 18 -4 21 -10 4 -7 -2 -7 -19 0 -17 6 -27 6 -32 -2 -4 -7 -3 -8 4 -4 7 4
12 2 12 -4 0 -6 5 -8 12 -4 7 4 8 3 4 -5 -4 -6 -11 -9 -16 -6 -4 3 -11 -1 -13
-7 -4 -9 -6 -9 -6 1 -1 11 -5 10 -15 -5 -13 -16 -13 -22 -1 -41 12 -18 12 -23
-1 -34 -8 -7 -20 -22 -25 -33 -8 -17 -6 -16 13 5 13 14 29 24 36 21 7 -2 12 5
12 17 0 25 13 27 30 6 11 -13 15 -13 21 -3 7 10 9 9 9 -4 0 -20 -15 -24 -25
-8 -10 16 -25 1 -18 -17 4 -9 2 -14 -3 -10 -6 3 -16 1 -24 -5 -12 -8 -12 -9 3
-4 9 3 17 1 17 -4 0 -6 -5 -10 -11 -10 -5 0 -7 -5 -4 -10 3 -6 1 -10 -4 -10
-6 0 -11 -7 -11 -15 0 -9 -7 -18 -15 -21 -8 -4 -15 -12 -15 -20 0 -8 -3 -13
-8 -11 -4 1 -8 -2 -10 -8 -2 -5 -10 -20 -18 -32 -13 -20 -12 -22 3 -16 10 4
14 2 10 -4 -4 -7 0 -10 10 -9 10 2 19 8 19 14 1 7 2 17 3 23 0 5 5 7 11 4 5
-3 10 0 10 8 0 8 11 22 25 31 14 9 25 12 25 7 0 -5 -5 -11 -11 -13 -7 -2 -13
-18 -15 -34 -4 -40 21 -41 44 -2 9 15 20 28 25 28 4 0 5 4 2 10 -3 5 2 10 12
10 14 0 15 2 5 9 -11 6 -10 10 4 15 9 3 19 4 22 1 3 -3 0 -5 -7 -5 -7 0 -10
-4 -6 -10 3 -5 -3 -18 -15 -30 -11 -11 -17 -20 -13 -20 5 0 0 -5 -9 -11 -10
-5 -18 -15 -18 -20 0 -6 5 -7 12 -3 7 5 8 3 4 -5 -5 -7 -10 -10 -13 -7 -3 3
-19 -20 -34 -51 -34 -69 -40 -83 -33 -83 2 0 9 12 14 26 6 14 14 22 20 19 6
-4 7 1 3 12 -7 19 -5 18 17 -10 7 -10 9 -17 4 -16 -18 3 -37 -1 -31 -7 3 -4 2
-15 -4 -25 -6 -13 -6 -19 1 -19 5 0 10 7 10 15 0 8 5 15 11 15 5 0 7 -4 4 -10
-3 -6 1 -7 9 -4 9 3 14 10 11 14 -6 10 14 24 22 16 4 -3 -3 -16 -15 -29 -11
-12 -24 -34 -27 -50 -4 -15 -11 -27 -17 -27 -5 0 -6 -5 -2 -12 5 -7 11 -5 21
7 7 11 13 14 13 8 0 -7 -5 -15 -10 -18 -6 -4 -8 -11 -5 -16 4 -5 1 -9 -5 -9
-6 0 -8 -5 -5 -10 4 -6 12 -7 18 -4 7 4 8 3 4 -2 -4 -4 -19 -9 -33 -10 -22 -1
-23 1 -9 16 8 9 15 21 15 26 -1 5 -9 -1 -20 -14 -11 -14 -16 -30 -13 -40 6
-15 5 -16 -12 -2 -17 14 -17 14 -5 -7 12 -19 15 -20 25 -6 10 13 14 13 20 3 5
-9 4 -11 -3 -6 -7 4 -12 2 -12 -3 0 -19 -2 -26 -12 -45 -10 -19 -11 -19 -24
-1 -8 10 -14 14 -14 8 0 -7 7 -18 15 -27 15 -14 11 -46 -6 -46 -4 0 -5 -7 -2
-17 5 -12 3 -14 -8 -8 -12 8 -12 6 0 -8 9 -12 10 -21 4 -29 -14 -18 -12 -50 3
-44 9 3 10 -3 4 -23 -4 -15 -4 -35 1 -44 6 -10 5 -18 -1 -22 -6 -4 -8 -11 -5
-16 15 -23 21 -4 21 61 -1 48 3 70 11 70 8 0 11 -18 9 -60 -2 -34 1 -60 7 -60
6 0 6 -5 0 -12 -5 -7 -8 -24 -6 -38 2 -14 4 -44 5 -67 0 -24 4 -40 8 -38 12 8
8 159 -4 167 -6 5 -2 8 10 8 40 0 54 -49 25 -84 -11 -13 -11 -16 1 -16 10 0
13 -10 10 -37 -4 -34 -3 -36 12 -24 9 7 16 9 16 3 0 -8 -22 -22 -35 -22 -2 0
-5 17 -7 38 l-3 37 -5 -42 c-3 -23 -2 -39 1 -37 4 2 9 -2 12 -8 4 -10 7 -11
18 -1 27 26 45 15 43 -24 -2 -21 2 -9 9 25 7 35 14 61 17 58 3 -3 7 6 8 20 1
15 -2 23 -8 19 -6 -3 -10 -13 -10 -21 0 -18 -11 -18 -36 2 -18 14 -18 15 4 4
24 -12 30 -2 10 18 -9 9 -9 12 1 12 7 0 9 4 6 10 -3 6 -1 10 5 10 7 0 9 -8 5
-22 -7 -22 -6 -22 11 -6 15 15 15 20 4 35 -12 15 -12 16 0 6 8 -7 23 -13 35
-14 18 0 18 -1 -3 -10 -19 -7 -23 -29 -6 -29 3 0 3 4 0 9 -3 5 4 11 16 14 17
5 19 9 9 21 -9 11 -9 16 0 22 7 4 9 3 5 -4 -7 -12 20 -10 31 3 4 4 3 5 -3 2
-7 -4 -15 0 -18 9 -9 24 -7 31 4 14 6 -10 10 -11 10 -2 0 6 6 12 14 12 20 0
29 17 15 26 -8 5 -9 3 -4 -6 6 -9 4 -11 -4 -6 -13 9 -6 21 11 21 6 0 13 11 15
24 5 32 11 37 25 23 9 -9 9 -12 -2 -12 -7 0 -11 -3 -7 -6 3 -3 11 -3 17 1 8 5
6 13 -6 26 -19 21 -6 26 16 7 8 -7 12 -9 8 -4 -4 5 -1 21 7 35 8 17 10 33 5
41 -10 16 -4 30 13 30 8 0 8 -3 -1 -9 -10 -6 -10 -11 3 -21 15 -12 19 -11 28
5 7 11 12 38 12 60 1 31 4 39 17 37 9 -1 20 3 24 9 4 8 3 9 -4 5 -7 -4 -12 -3
-12 2 0 6 7 13 16 16 8 3 13 10 9 15 -3 5 -1 12 4 15 4 3 8 17 9 32 0 14 4 29
9 33 11 7 11 26 0 37 -4 5 2 16 15 26 22 17 22 18 3 18 -19 1 -19 1 -2 15 10
7 17 22 15 32 -2 10 3 24 12 30 11 10 12 15 3 21 -8 5 -9 13 -3 22 5 9 5 19
-1 26 -14 17 9 30 24 15 9 -9 7 -10 -8 -5 -18 7 -18 6 -7 -9 8 -9 11 -21 8
-26 -4 -5 -2 -12 4 -16 6 -3 10 4 10 18 0 14 7 30 16 38 9 7 14 22 11 36 -2
13 0 26 5 29 6 4 5 9 -2 14 -9 5 -9 13 -2 27 7 12 7 24 2 29 -5 5 -3 25 5 47
10 31 11 36 0 27 -10 -8 -15 -8 -21 1 -5 8 -3 9 6 4 10 -6 12 -4 7 8 -3 9 -1
19 5 23 7 5 8 2 3 -6 -5 -9 -4 -11 3 -6 8 4 8 15 2 31 -5 14 -7 25 -4 25 4 0
2 6 -4 13 -8 9 -8 17 0 27 8 13 9 12 4 -2 -3 -11 -1 -15 7 -12 7 2 13 13 13
24 0 10 -4 16 -8 14 -4 -3 -8 4 -8 15 0 15 5 19 18 14 14 -5 13 -3 -3 10 -11
8 -24 13 -29 10 -5 -4 -6 -1 -2 5 5 9 13 9 26 2 11 -6 21 -6 24 -1 3 5 -1 12
-10 15 -13 5 -14 9 -5 20 8 10 9 16 1 21 -6 3 -8 10 -5 15 3 5 -4 26 -16 46
-13 25 -19 47 -15 65 4 23 2 27 -12 22 -14 -6 -15 -5 -2 9 19 20 31 4 24 -32
-4 -22 -3 -23 5 -4 5 11 8 52 6 90 -3 64 -2 66 9 36 6 -19 11 -50 10 -70 0
-21 4 -41 10 -45 7 -6 4 -7 -7 -3 -15 5 -16 3 -3 -17 8 -12 16 -38 19 -57 2
-19 7 -44 11 -55 12 -30 17 -50 16 -53 -1 -2 7 -11 17 -20 23 -22 23 -21 27
-252 3 -140 1 -206 -9 -235 -57 -181 -64 -217 -51 -270 2 -11 5 -26 5 -33 1
-7 5 -10 11 -7 5 3 7 0 4 -9 -3 -8 0 -24 6 -36 8 -16 8 -25 0 -35 -9 -11 -7
-13 12 -9 13 2 18 2 11 -2 -7 -3 -10 -11 -7 -18 3 -7 6 -26 8 -42 1 -17 7 -28
15 -26 8 1 10 -2 5 -10 -13 -21 -12 -49 1 -38 8 7 11 3 10 -13 -3 -29 5 -48
16 -41 5 3 4 -7 -1 -21 -7 -17 -7 -24 0 -20 6 3 10 -2 11 -12 0 -10 2 -25 4
-33 6 -25 15 -59 21 -83 3 -12 7 -39 9 -59 2 -21 7 -43 11 -50 5 -7 9 -17 10
-23 22 -125 23 -144 14 -170 -4 -11 -4 -29 0 -41 5 -12 10 -43 11 -70 3 -56
17 -104 30 -104 5 0 9 -6 9 -13 0 -8 9 -22 20 -32 11 -10 18 -21 15 -25 -4 -7
30 -40 43 -40 4 0 14 -6 21 -12 6 -7 16 -14 22 -14 5 -1 10 -2 12 -4 14 -11
122 -16 153 -6 29 9 43 46 38 97 -7 55 -16 72 -56 101 -55 38 -108 90 -108
106 0 8 -11 29 -23 46 -28 37 -57 120 -60 170 -1 20 -4 36 -7 36 -3 0 -6 11
-7 25 -1 14 -3 36 -4 50 -1 14 -5 25 -9 25 -3 0 -7 6 -7 13 0 6 -5 36 -12 65
-7 29 -14 72 -15 95 -1 23 -6 48 -10 56 -6 9 -5 12 1 8 7 -4 13 16 16 56 3 34
9 78 13 97 4 19 6 64 5 100 -7 152 -1 265 14 291 4 5 8 27 10 47 9 84 13 109
23 147 6 22 13 62 17 89 6 46 17 85 61 198 10 27 27 51 40 57 26 11 58 68 69
121 4 19 13 45 19 58 l12 22 45 -30 c25 -16 58 -41 73 -55 15 -14 29 -25 31
-25 4 0 105 -65 120 -77 6 -5 28 -20 50 -33 62 -38 113 -99 101 -119 -4 -5 -1
-13 5 -17 8 -4 7 -9 -2 -15 -11 -7 -11 -9 -1 -9 10 0 10 -5 2 -20 -6 -11 -8
-25 -5 -30 3 -5 0 -12 -6 -15 -5 -4 -8 -13 -5 -21 3 -8 1 -14 -5 -14 -5 0 -14
-11 -19 -25 -5 -14 -32 -58 -58 -98 -58 -85 -109 -178 -107 -192 7 -48 31 -98
59 -127 19 -20 45 -56 56 -82 12 -25 42 -67 67 -93 25 -26 48 -55 52 -63 18
-41 103 -160 112 -155 5 3 7 0 4 -7 -3 -7 5 -29 17 -48 12 -19 22 -37 23 -40
0 -3 6 -15 13 -28 9 -15 12 -57 11 -127 -3 -105 6 -135 37 -135 24 0 15 -31
-21 -71 -35 -39 -39 -50 -36 -102 2 -42 57 -119 107 -151 50 -32 108 -44 128
-27 12 10 26 56 31 101 1 8 7 27 13 42 6 14 9 37 7 50 -2 13 -6 44 -9 70 -3
25 -10 57 -14 70 -5 13 -9 58 -10 101 0 74 -2 82 -36 131 -20 29 -36 58 -36
64 0 7 -3 12 -7 12 -5 0 -24 33 -42 73 -19 39 -37 74 -40 77 -4 3 -13 19 -21
35 -8 17 -21 34 -28 38 -7 5 -10 12 -7 18 4 5 2 9 -3 9 -5 0 -15 14 -22 31
-10 22 -15 27 -21 17 -6 -9 -9 -9 -9 -1 0 6 5 15 10 18 6 4 4 12 -5 21 -8 9
-13 19 -10 24 3 5 0 10 -6 12 -7 2 -13 29 -15 61 -1 31 -5 61 -8 66 -4 5 -2
12 4 16 6 4 8 10 5 15 -3 5 -1 11 4 14 5 4 8 17 6 31 -1 14 2 25 7 25 6 0 7 7
4 16 -3 8 -2 12 4 9 9 -6 15 8 11 29 -1 5 6 6 15 2 14 -5 15 -4 4 9 -10 12 -9
16 3 21 9 3 13 12 10 20 -6 17 13 19 21 2 3 -7 3 -3 0 10 -4 16 -1 22 11 22 9
0 13 5 10 10 -3 5 1 10 10 10 9 0 13 4 10 10 -3 5 7 22 22 37 45 44 88 117
123 206 46 115 69 168 84 197 8 14 22 52 31 84 10 33 31 89 48 125 17 36 31
68 32 71 0 3 6 14 12 26 18 31 6 81 -38 161 -42 77 -48 103 -24 103 8 0 15 5
15 10 0 6 5 10 10 10 12 0 86 47 114 73 11 9 24 17 28 17 5 0 14 4 21 10 7 5
38 31 71 57 69 56 226 211 226 223 0 5 6 15 13 22 27 29 68 134 82 211 4 20
11 40 16 43 5 3 7 10 4 15 -4 5 -1 9 5 9 6 0 8 5 5 10 -3 6 -1 10 5 10 6 0 9
4 6 9 -9 14 18 20 29 7 14 -16 15 -49 2 -58 -7 -5 -8 -8 -2 -8 6 0 11 -9 12
-20 1 -13 -2 -18 -10 -13 -7 4 -5 -2 3 -12 14 -17 13 -18 -4 -12 -15 6 -17 5
-7 -7 9 -11 8 -15 -6 -21 -17 -7 -17 -8 2 -15 18 -8 18 -9 2 -9 -10 -1 -15 -5
-12 -11 3 -5 1 -10 -5 -10 -6 0 -8 -4 -5 -10 3 -5 3 -16 -2 -22 -4 -7 -8 -15
-8 -18 -1 -15 -60 -130 -66 -130 -5 0 -6 -6 -3 -14 3 -8 1 -17 -4 -20 -11 -6
8 -86 20 -86 4 0 0 -8 -9 -18 -10 -11 -28 -18 -40 -17 -13 1 -26 -7 -34 -21
-7 -13 -16 -24 -21 -24 -4 0 -8 -6 -8 -14 0 -7 -7 -19 -16 -27 -26 -22 -48
-72 -45 -109 3 -55 48 -138 89 -164 36 -23 105 -28 123 -9 4 5 28 49 54 98 40
75 48 100 50 151 2 57 25 113 47 114 4 0 15 14 24 31 14 27 14 40 4 94 -12 62
-9 113 11 210 5 28 11 64 12 81 3 54 18 57 93 19 68 -35 112 -52 155 -60 63
-12 76 -19 103 -53 27 -36 28 -39 22 -132 -3 -52 -7 -105 -10 -116 -2 -12 -7
-37 -10 -55 -9 -57 -14 -72 -31 -113 -17 -40 -65 -119 -76 -124 -4 -2 -5 -23
-3 -47 4 -36 1 -45 -15 -50 -10 -3 -23 -5 -27 -4 -36 6 -54 -5 -89 -58 -55
-83 -65 -124 -49 -196 8 -32 21 -72 30 -88 19 -38 73 -61 128 -57 39 3 42 6
76 70 19 37 42 75 51 85 22 24 31 56 33 120 2 47 7 59 34 84 18 17 33 35 33
42 1 7 2 32 4 57 2 25 12 88 24 140 12 52 24 111 27 130 3 19 12 50 19 68 8
17 12 32 10 32 -2 0 13 33 32 73 28 58 36 86 38 140 3 90 -14 120 -90 161 -61
32 -66 38 -211 236 -43 58 -83 111 -90 117 -49 50 -74 139 -50 185 7 13 12 26
12 30 -1 3 3 10 8 15 5 5 6 2 1 -6 -5 -9 -4 -12 3 -7 7 4 12 15 13 24 0 11 3
12 6 5 8 -22 20 -14 18 11 -2 18 1 23 11 19 22 -8 40 14 38 47 -1 16 3 30 8
30 6 0 8 -7 5 -15 -4 -8 -1 -17 5 -21 7 -4 8 -3 4 4 -10 16 7 15 23 0 8 -7 6
-1 -3 13 -15 24 -15 27 1 40 9 8 14 9 10 3 -3 -6 0 -11 8 -11 11 0 12 4 4 14
-11 12 -5 17 14 14 4 -1 3 7 -2 18 -11 20 1 24 27 7 11 -7 11 -4 1 12 -7 12
-18 18 -24 15 -5 -4 -6 -2 -2 3 5 5 14 9 20 9 5 0 12 6 15 14 3 9 0 11 -8 6
-8 -5 -11 -4 -6 3 4 6 13 9 22 5 13 -5 13 -8 -3 -25 -16 -17 -16 -18 0 -12 9
3 17 10 17 16 0 5 4 6 10 3 6 -4 7 1 3 11 -5 13 -3 15 8 9 12 -8 12 -6 0 8
-16 20 -2 23 19 5 12 -11 12 -10 1 5 -7 9 -10 17 -5 17 5 0 2 5 -6 11 -12 8
-10 9 7 4 12 -3 25 -1 29 6 4 7 3 9 -3 6 -6 -4 -16 -1 -22 7 -9 11 -6 13 13
11 17 -2 23 1 20 10 -5 13 11 28 31 31 6 0 16 2 23 2 6 1 12 9 12 17 0 16 15
21 23 8 2 -5 3 -3 1 3 -1 6 2 16 8 22 6 6 6 12 -3 17 -8 6 -10 4 -4 -4 6 -10
3 -11 -14 -2 -11 7 -21 14 -21 17 0 3 5 2 10 -1 13 -8 62 30 52 40 -4 3 -2 6
3 5 30 -6 35 0 19 28 -11 18 -11 21 -2 10 17 -20 30 -14 20 10 -5 15 -4 15 12
0 22 -23 33 -23 15 -1 -12 15 -12 16 3 10 10 -3 20 -2 23 4 4 5 10 7 15 4 5
-3 12 0 16 6 5 8 3 9 -6 4 -8 -5 -11 -3 -8 6 3 8 11 13 18 11 10 -2 10 1 -1
14 -12 16 -12 17 2 12 13 -5 16 -2 12 12 -3 12 -11 17 -21 13 -10 -4 -14 -3
-11 1 4 4 19 9 35 12 22 3 25 2 14 -6 -27 -17 -2 -11 35 10 43 24 42 24 61 5
15 -14 18 -14 41 1 14 9 22 11 19 5 -4 -6 -3 -11 3 -11 5 0 12 6 14 13 4 9 6
9 6 -1 1 -7 5 -10 11 -7 6 4 7 -1 4 -12 -5 -16 -4 -16 10 1 8 10 13 22 11 27
-3 4 0 11 6 15 8 4 9 3 5 -4 -4 -7 -1 -12 9 -12 9 0 14 3 12 8 -3 4 1 13 9 20
9 8 14 9 14 2 0 -6 -12 -22 -27 -36 -14 -13 -23 -27 -20 -31 4 -3 7 -1 7 5 0
7 7 12 15 12 8 0 15 5 15 11 0 8 6 7 18 -2 16 -13 16 -13 2 5 -14 18 -13 18
10 12 18 -5 21 -4 11 3 -8 5 -16 20 -18 33 l-3 23 15 -25 c9 -14 14 -18 13
-10 -2 9 7 28 20 44 12 16 22 24 22 19 0 -5 -5 -14 -12 -21 -9 -9 -9 -12 1
-12 8 0 20 8 27 18 13 16 15 16 25 0 5 -10 21 -18 34 -18 19 0 25 -5 26 -22 0
-21 1 -21 8 -4 4 11 14 20 22 22 33 5 45 10 57 24 11 13 11 11 2 -8 -6 -12
-15 -20 -20 -17 -5 3 -11 1 -14 -4 -3 -5 3 -11 14 -14 11 -3 18 -2 16 1 -2 4
7 18 20 31 20 21 24 22 29 9 6 -15 9 -14 26 3 21 21 39 25 39 8 0 -5 5 -7 10
-4 6 3 10 0 10 -7 0 -9 3 -9 10 2 8 12 10 10 11 -10 1 -17 3 -20 6 -7 2 9 9
15 14 11 5 -3 6 -10 3 -16 -4 -6 -2 -8 4 -4 5 3 13 0 15 -6 4 -10 6 -10 6 0 1
7 5 10 11 7 6 -3 7 1 3 10 -5 14 -8 14 -15 3 -8 -10 -9 -10 -5 2 2 8 9 16 15
16 7 1 17 2 22 3 6 0 10 6 10 12 0 5 -5 7 -12 3 -7 -4 -8 -3 -4 4 4 7 2 12 -5
12 -7 0 -10 3 -7 6 4 3 15 1 26 -5 13 -7 22 -7 31 2 10 9 11 8 6 -4 -4 -10 0
-19 9 -22 11 -4 13 -1 9 10 -4 11 -2 14 8 11 8 -3 13 -11 11 -17 -1 -6 3 -11
9 -11 6 0 9 6 6 13 -7 17 9 44 20 34 4 -5 1 -12 -6 -16 -9 -6 -10 -11 -2 -15
6 -4 11 -2 11 5 0 9 3 9 14 0 11 -10 14 -9 12 3 -1 9 -5 19 -9 22 -4 4 -7 12
-7 18 0 6 5 4 10 -4 8 -13 10 -12 10 3 0 15 3 16 23 6 19 -11 20 -10 9 3 -11
13 -8 15 17 12 20 -2 33 2 39 13 6 11 11 12 16 4 4 -6 2 -11 -4 -11 -6 0 -9
-4 -6 -8 6 -11 36 -9 55 3 9 5 12 4 8 -2 -4 -6 0 -14 9 -17 8 -3 12 -2 9 4 -3
6 -1 10 4 10 6 0 11 -8 11 -17 1 -17 1 -17 11 0 13 21 29 22 29 1 0 -13 5 -11
21 7 11 13 17 18 13 10 -4 -9 -2 -12 7 -9 8 3 13 11 11 17 -1 7 2 10 8 6 6 -3
7 -12 4 -18 -4 -7 -4 -9 1 -5 4 4 15 2 24 -5 14 -10 14 -10 3 5 -7 9 -15 31
-17 49 -4 29 -3 30 9 13 11 -14 11 -21 3 -26 -7 -4 -7 -8 -2 -8 6 0 16 4 23 9
11 7 10 9 -3 15 -9 3 -13 11 -9 17 4 8 9 7 16 -2 8 -11 9 -11 5 1 -2 8 -9 15
-15 15 -5 0 -14 3 -18 8 -4 4 3 7 15 7 15 0 20 4 15 13 -4 6 2 3 14 -7 22 -19
22 -19 23 0 0 15 2 16 7 4 10 -22 54 -24 70 -3 13 16 13 16 7 -7 -7 -22 -6
-23 9 -11 11 9 16 10 16 2 0 -7 5 -9 10 -6 6 4 8 12 4 18 -3 7 1 4 9 -6 13
-15 15 -15 20 -2 4 9 13 12 24 9 14 -4 15 -4 4 4 -10 7 -10 11 -1 14 9 3 7 8
-4 17 -14 12 -16 12 -11 -2 4 -8 1 -18 -5 -22 -7 -4 -10 0 -8 11 2 12 -2 18
-10 16 -8 -1 -11 2 -8 7 6 10 22 9 61 -3 16 -5 15 -4 -2 5 -13 7 -23 16 -23
21 0 5 -6 6 -12 2 -8 -5 -8 -1 2 12 22 29 24 30 18 13 -4 -9 2 -21 14 -28 11
-7 18 -9 15 -4 -3 5 4 15 15 22 18 11 20 11 15 -3 -4 -10 -1 -13 9 -9 8 3 22
-1 31 -8 10 -8 14 -9 10 -2 -4 6 -3 14 3 18 6 4 8 11 4 16 -3 5 -10 6 -16 3
-6 -4 -8 -2 -5 4 8 12 32 10 44 -3 4 -4 2 -5 -6 0 -9 5 -12 4 -8 -3 5 -7 15
-7 32 1 17 8 20 13 10 15 -8 2 -15 8 -15 13 0 12 6 11 33 -2 20 -9 21 -9 4 4
-14 11 -15 16 -5 20 10 4 10 6 1 6 -7 1 -13 5 -13 11 0 5 6 8 13 6 6 -1 9 -1
4 1 -4 3 -4 10 -1 16 5 8 2 8 -7 0 -17 -17 -26 -16 -32 1 -4 10 -1 13 7 10 8
-3 16 -1 20 4 3 5 0 9 -7 10 -29 2 -48 9 -59 20 -7 7 -8 12 -3 12 5 0 1 6 -10
13 -17 13 -16 14 6 11 13 -1 26 -3 28 -3 2 -1 0 -7 -5 -14 -5 -7 0 -4 10 8
l19 20 -6 -25 c-6 -24 -5 -24 8 -6 11 14 15 16 15 5 0 -12 2 -12 10 1 5 8 10
10 10 4 0 -13 47 -6 56 8 3 5 12 4 20 -3 11 -9 17 -9 29 1 8 6 20 8 27 4 10
-5 11 -4 1 7 -14 14 -18 33 -5 25 4 -2 9 5 9 16 2 20 1 20 -15 -3 -9 -13 -17
-27 -17 -31 0 -5 -4 -8 -10 -8 -5 0 -10 3 -10 8 0 4 -4 14 -10 22 -8 13 -7 13
10 0 17 -14 18 -13 12 3 -4 10 -3 16 2 12 5 -3 12 -1 15 4 4 5 1 13 -5 17 -8
5 -8 9 2 14 7 5 -3 7 -23 5 -34 -3 -36 -1 -32 21 3 19 1 22 -12 17 -13 -5 -15
-3 -9 7 6 10 4 12 -8 7 -10 -4 -16 -2 -14 5 2 14 -23 18 -39 6 -6 -4 -11 -2
-11 7 0 8 4 12 8 9 4 -2 11 0 14 6 4 6 3 10 -2 9 -24 -4 -43 3 -43 15 0 8 -5
18 -12 22 -7 5 -8 3 -3 -5 5 -9 1 -9 -16 1 -13 7 -25 14 -27 15 -2 0 -5 8 -6
17 -1 9 -5 16 -9 16 -4 0 -12 0 -19 0 -6 0 -3 -6 8 -14 10 -8 16 -18 11 -22
-4 -4 -7 -2 -7 5 0 7 -4 10 -9 7 -11 -7 -21 18 -13 30 9 12 53 14 46 3 -3 -5
0 -9 6 -9 6 0 9 -4 6 -9 -3 -5 1 -12 9 -15 12 -4 13 -2 6 12 -7 14 -5 21 9 30
11 6 22 8 25 3 6 -10 24 -9 43 2 6 5 12 5 12 1 0 -4 10 1 21 12 22 19 22 19 8
-4 -8 -12 -20 -20 -27 -17 -7 3 -11 1 -8 -4 3 -4 -13 -7 -34 -6 -30 1 -37 -1
-30 -10 6 -7 24 -11 40 -10 17 1 30 -2 30 -7 0 -5 5 -6 11 -2 8 4 7 9 -2 15
-11 7 -10 9 4 9 9 0 17 -6 17 -12 0 -7 7 -2 16 10 10 15 23 21 39 18 17 -3 22
-1 18 10 -3 8 -8 12 -12 9 -4 -2 -8 2 -8 10 0 10 4 12 12 5 7 -5 15 -6 19 -2
4 4 6 3 4 -3 -3 -11 4 -15 25 -15 6 0 -1 9 -18 20 -16 11 -24 20 -17 20 7 0
11 4 7 9 -3 5 -1 12 4 16 6 3 8 -4 6 -16 -4 -18 -2 -19 11 -8 14 12 13 16 -9
35 -14 12 -23 26 -19 30 4 5 -3 0 -15 -10 -13 -11 -24 -16 -24 -13 -1 4 -3 12
-4 17 -1 6 -3 17 -4 25 0 8 -7 12 -15 9 -8 -3 -17 0 -22 7 -4 7 -3 10 4 5 6
-4 12 5 14 21 l4 28 12 -27 c18 -42 23 -33 7 12 -10 28 -11 41 -3 46 6 4 8 3
5 -3 -4 -6 0 -13 7 -16 15 -6 15 21 -1 46 -4 6 -8 15 -8 19 0 11 -15 22 -15
11 0 -6 -7 -14 -16 -17 -9 -3 -12 -2 -9 5 4 5 1 16 -5 24 -9 11 -17 12 -34 4
-20 -10 -20 -9 -2 5 10 9 22 13 26 11 5 -3 10 2 13 10 4 8 1 12 -6 9 -7 -2
-18 6 -26 18 -14 23 -14 23 8 4 21 -19 30 -9 10 11 -8 8 -5 14 11 23 20 10 21
10 11 -8 -10 -19 -6 -32 11 -32 5 0 7 10 3 23 -5 18 -3 17 10 -5 19 -33 21
-34 21 -8 0 10 -2 17 -4 15 -2 -2 -16 11 -32 28 -23 26 -30 29 -43 19 -10 -9
-17 -10 -22 -2 -3 5 -11 10 -17 10 -6 0 -9 -3 -5 -6 3 -4 -1 -13 -9 -22 -12
-11 -18 -12 -27 -3 -9 10 -9 12 2 9 7 -2 15 3 17 10 1 7 0 8 -3 2 -3 -7 -10
-7 -20 1 -11 10 -14 10 -11 -2 2 -8 -4 -13 -15 -13 -14 2 -15 -1 -6 -12 8 -10
8 -14 1 -14 -6 0 -9 -8 -6 -17 5 -15 4 -15 -4 -3 -6 8 -8 18 -6 22 3 4 1 8 -5
8 -5 0 -13 -9 -16 -20 -4 -11 -11 -17 -17 -14 -6 4 -5 10 3 15 11 7 11 9 -2 9
-9 0 -28 -9 -43 -21 -15 -12 -26 -17 -25 -12 3 20 -2 23 -22 13 -15 -8 -24 -8
-34 0 -10 8 -15 8 -20 0 -4 -6 -13 -9 -21 -6 -7 3 -15 2 -18 -2 -2 -4 -33 -6
-68 -5 -34 2 -111 4 -170 5 -64 2 -108 7 -108 13 0 7 -3 6 -8 0 -7 -10 -202
-15 -202 -5 0 3 -23 6 -51 7 -28 1 -56 7 -63 12 -7 6 -16 8 -20 4 -10 -10 -76
-11 -82 -2 -3 5 1 9 9 9 9 0 15 10 15 25 0 14 -5 25 -10 25 -5 0 -6 -6 -2 -12
4 -7 -5 -2 -19 11 -23 21 -27 22 -33 8 -3 -9 -10 -14 -16 -11 -5 3 -16 -2 -24
-12 -15 -18 -15 -18 -10 0 6 16 4 17 -9 6 -8 -7 -12 -16 -9 -21 3 -5 -3 -6
-12 -2 -13 5 -16 2 -12 -8 4 -11 -1 -15 -17 -15 -13 0 -22 2 -20 6 2 3 -14 5
-35 5 -21 0 -36 -3 -34 -6 2 -4 -4 -10 -13 -13 -9 -4 -20 -1 -25 6 -6 11 -8
10 -8 0 0 -7 -4 -10 -10 -7 -5 3 -10 0 -10 -7 0 -11 -2 -10 -9 0 -7 11 -9 11
-14 -2 -4 -9 -14 -13 -27 -11 -13 2 -18 0 -14 -7 4 -6 1 -9 -6 -6 -8 2 -22 -4
-32 -14 -13 -13 -28 -18 -49 -14 -16 2 -29 1 -29 -3 0 -11 -37 -14 -105 -8
-22 2 -43 -2 -47 -7 -5 -7 -11 -6 -17 3 -8 13 -12 13 -27 0 -11 -9 -15 -9 -10
-1 4 7 1 12 -8 12 -9 0 -16 -6 -16 -12 0 -10 -2 -10 -9 0 -4 8 -11 13 -15 13
-3 -1 -7 0 -8 0 -2 1 -14 2 -28 3 -29 2 -52 14 -46 25 3 4 -6 7 -19 7 -13 0
-21 -4 -19 -8 8 -13 -10 -9 -26 5 -8 6 -6 2 5 -11 18 -22 18 -23 0 -16 -14 6
-16 4 -10 -6 5 -9 4 -11 -4 -6 -6 4 -9 11 -6 15 2 5 -5 8 -18 7 -15 -1 -22 5
-22 16 0 30 -21 42 -36 21 -19 -25 -48 -28 -56 -6 -4 10 -9 20 -13 23 -3 3
-11 23 -18 45 -10 34 -9 42 3 51 8 6 12 13 10 16 -3 3 6 13 20 22 14 9 25 14
25 11 0 -3 14 9 32 27 18 18 36 32 40 31 4 -2 8 4 8 13 0 8 4 13 10 9 5 -3 16
5 25 19 10 15 24 23 35 21 11 -2 19 -1 17 3 -1 4 8 17 21 30 12 12 22 19 22
15 0 -4 9 3 21 15 11 12 26 19 32 16 7 -4 9 -4 5 0 -9 10 30 48 42 41 6 -4 10
1 10 9 0 9 7 16 16 16 10 0 14 6 10 15 -3 8 -2 14 2 14 19 -3 33 2 28 10 -3 5
2 8 12 7 9 0 16 5 15 12 -2 6 3 12 11 12 8 0 16 7 20 15 3 8 9 14 13 13 4 -2
23 11 42 27 18 17 37 29 42 28 5 -2 9 5 9 15 0 14 2 15 10 2 7 -11 10 -11 10
-2 0 19 37 55 49 47 6 -3 11 1 11 10 0 11 5 15 16 11 8 -3 12 -2 9 4 -3 6 -1
10 4 10 6 0 10 5 9 12 -2 7 2 13 7 13 21 3 45 17 40 25 -4 7 44 35 57 32 4 -1
4 6 1 15 -4 9 -2 14 4 10 10 -6 48 31 40 40 -3 2 -12 -6 -21 -19z m-1211 -306
c-3 -3 -11 0 -18 7 -9 10 -8 11 6 5 10 -3 15 -9 12 -12z m-519 -87 c0 -19 -3
-22 -13 -13 -10 8 -10 14 -2 24 15 18 15 18 15 -11z m70 10 c-29 -15 -43 -14
-33 2 3 5 18 10 34 11 l28 2 -29 -15z m-451 -225 c-3 -5 -12 -10 -18 -10 -7 0
-6 4 3 10 19 12 23 12 15 0z m-370 -40 c-3 -5 -12 -10 -18 -10 -7 0 -6 4 3 10
19 12 23 12 15 0z m142 -15 c0 -8 -4 -12 -9 -9 -5 3 -6 10 -3 15 9 13 12 11
12 -6z m48 -25 c-3 -5 -12 -10 -18 -10 -7 0 -6 4 3 10 19 12 23 12 15 0z
m-2640 -20 c3 -5 1 -10 -4 -10 -6 0 -11 5 -11 10 0 6 2 10 4 10 3 0 8 -4 11
-10z m2892 -25 c0 -8 -4 -12 -9 -9 -5 3 -6 10 -3 15 9 13 12 11 12 -6z m2238
6 c3 -5 2 -12 -3 -15 -5 -3 -9 1 -9 9 0 17 3 19 12 6z m-4995 -21 c0 -5 -5
-10 -11 -10 -5 0 -7 5 -4 10 3 6 8 10 11 10 2 0 4 -4 4 -10z m5000 -20 c0 -5
-5 -10 -11 -10 -5 0 -7 5 -4 10 3 6 8 10 11 10 2 0 4 -4 4 -10z m1160 6 c0 -2
-7 -7 -16 -10 -8 -3 -12 -2 -9 4 6 10 25 14 25 6z m-3447 -33 c-3 -7 -6 -13
-8 -13 -2 0 -5 6 -8 13 -3 8 1 14 8 14 7 0 11 -6 8 -14z m-4040 -13 c3 -11 1
-18 -4 -14 -5 3 -9 12 -9 20 0 20 7 17 13 -6z m4020 -5 c4 -8 3 -16 -1 -19 -4
-3 -9 4 -9 15 -2 23 3 25 10 4z m1371 -6 c-3 -5 0 -17 8 -26 11 -14 11 -16 -4
-10 -10 3 -18 1 -20 -7 -2 -10 -8 -8 -22 5 -18 17 -17 18 5 12 14 -4 20 -2 16
5 -9 14 3 43 14 36 5 -3 7 -10 3 -15z m2056 -3 c0 -2 -7 -7 -16 -10 -8 -3 -12
-2 -9 4 6 10 25 14 25 6z m-1930 -26 c7 -14 7 -20 0 -20 -5 0 -10 8 -10 18 0
14 -2 15 -10 2 -5 -8 -10 -10 -10 -4 0 10 9 24 16 24 2 0 8 -9 14 -20z m1940
6 c0 -2 -7 -7 -16 -10 -8 -3 -12 -2 -9 4 6 10 25 14 25 6z m-25 -46 c3 -6 -1
-7 -9 -4 -18 7 -21 14 -7 14 6 0 13 -4 16 -10z m95 -36 c0 -8 -19 -13 -24 -6
-3 5 1 9 9 9 8 0 15 -2 15 -3z m-3740 -40 c0 -8 -19 -13 -24 -6 -3 5 1 9 9 9
8 0 15 -2 15 -3z m-2 -119 c0 -24 -8 -31 -21 -19 -6 6 9 44 17 44 2 0 4 -11 4
-25z m3797 -13 c-3 -3 -11 0 -18 7 -9 10 -8 11 6 5 10 -3 15 -9 12 -12z
m-9065 4 c0 -2 -8 -10 -17 -17 -16 -13 -17 -12 -4 4 13 16 21 21 21 13z m9045
-15 c3 -5 2 -12 -3 -15 -5 -3 -9 1 -9 9 0 17 3 19 12 6z m-8950 -11 c3 -6 -1
-7 -9 -4 -18 7 -21 14 -7 14 6 0 13 -4 16 -10z m8670 -71 c-3 -12 -7 -24 -10
-27 -3 -3 -3 5 -1 19 6 30 5 29 10 29 3 0 3 -10 1 -21z m226 -2 c-10 -9 -11
-8 -5 6 3 10 9 15 12 12 3 -3 0 -11 -7 -18z m-3690 -120 c-10 -9 -11 -8 -5 6
3 10 9 15 12 12 3 -3 0 -11 -7 -18z m-146 -8 c-10 -15 -25 -10 -19 6 4 8 10
12 15 9 5 -3 7 -10 4 -15z m3898 -76 c3 -5 -6 -9 -20 -10 -19 -1 -22 1 -12 8
17 11 26 11 32 2z m-9086 -65 c-3 -8 -6 -5 -6 6 -1 11 2 17 5 13 3 -3 4 -12 1
-19z m5193 -78 c-9 -17 -8 -20 11 -20 12 0 19 -3 15 -7 -11 -11 -30 -10 -37 0
-9 12 1 47 13 47 5 0 4 -9 -2 -20z m35 0 c-3 -5 -12 -10 -18 -10 -7 0 -6 4 3
10 19 12 23 12 15 0z m3730 -40 c3 -5 1 -10 -4 -10 -6 0 -11 5 -11 10 0 6 2
10 4 10 3 0 8 -4 11 -10z m-135 -64 c0 -3 -4 -8 -10 -11 -5 -3 -10 -1 -10 4 0
6 5 11 10 11 6 0 10 -2 10 -4z m-8760 -30 c0 -2 -8 -10 -17 -17 -16 -13 -17
-12 -4 4 13 16 21 21 21 13z m-45 -16 c3 -5 1 -10 -4 -10 -6 0 -11 5 -11 10 0
6 2 10 4 10 3 0 8 -4 11 -10z m5065 -130 c0 -5 -5 -10 -11 -10 -5 0 -7 5 -4
10 3 6 8 10 11 10 2 0 4 -4 4 -10z m36 -105 c0 -14 -4 -25 -8 -25 -10 0 -10
13 -2 34 9 23 12 20 10 -9z m-5101 -5 c3 -5 1 -10 -4 -10 -6 0 -11 5 -11 10 0
6 2 10 4 10 3 0 8 -4 11 -10z m5195 -74 c0 -2 -7 -7 -16 -10 -8 -3 -12 -2 -9
4 6 10 25 14 25 6z m2230 -2 c0 -8 -19 -13 -24 -6 -3 5 1 9 9 9 8 0 15 -2 15
-3z m-2260 -39 c0 -8 -4 -15 -10 -15 -5 0 -7 7 -4 15 4 8 8 15 10 15 2 0 4 -7
4 -15z m-5032 -52 c-5 -7 -14 -10 -19 -7 -16 10 -9 23 10 21 15 -1 17 -4 9
-14z m132 -87 c0 -2 -7 -7 -16 -10 -8 -3 -12 -2 -9 4 6 10 25 14 25 6z m6780
-66 c0 -5 -5 -10 -11 -10 -5 0 -7 5 -4 10 3 6 8 10 11 10 2 0 4 -4 4 -10z m40
-10 c0 -5 -5 -10 -11 -10 -5 0 -7 5 -4 10 3 6 8 10 11 10 2 0 4 -4 4 -10z
m-37 -19 c4 -1 12 -1 18 -1 5 0 7 -5 4 -11 -4 -6 -13 -8 -20 -5 -7 2 -17 0
-22 -5 -5 -5 -17 -3 -29 7 -18 15 -18 15 2 5 28 -13 39 -2 16 16 -16 13 -15
13 3 5 11 -6 23 -10 28 -11z m-5295 -26 c-3 -3 -9 2 -12 12 -6 14 -5 15 5 6 7
-7 10 -15 7 -18z m-1086 -24 c-11 -7 -11 -9 2 -14 8 -3 17 -2 20 4 2 5 4 5 3
-1 -2 -7 -6 -11 -10 -11 -4 1 -17 1 -28 1 -18 0 -19 2 -9 15 7 8 18 15 24 15
7 0 6 -4 -2 -9z m68 -20 c-11 -22 -30 -20 -30 2 0 8 3 7 9 -2 7 -11 10 -9 16
8 4 13 9 20 12 18 2 -3 0 -15 -7 -26z m1180 -22 c-6 -11 -15 -17 -21 -14 -14
10 -11 25 7 25 9 0 12 5 8 12 -4 7 -3 8 4 4 9 -5 9 -13 2 -27z m5028 -44 c-3
-3 -9 2 -12 12 -6 14 -5 15 5 6 7 -7 10 -15 7 -18z m-4675 -60 c-3 -9 -8 -14
-10 -11 -3 3 -2 9 2 15 9 16 15 13 8 -4z m4597 -29 c0 -3 -4 -8 -10 -11 -5 -3
-10 -1 -10 4 0 6 5 11 10 11 6 0 10 -2 10 -4z m-4500 -47 c0 -5 5 -7 12 -3 6
4 8 3 4 -4 -3 -6 1 -18 10 -26 8 -9 11 -16 7 -16 -5 0 -19 14 -31 30 -13 17
-18 30 -12 30 5 0 10 -5 10 -11z m4433 -54 c4 -8 2 -17 -3 -20 -6 -4 -10 3
-10 14 0 25 6 27 13 6z m-53 -39 c0 -2 -7 -7 -16 -10 -8 -3 -12 -2 -9 4 6 10
25 14 25 6z m-3243 -889 c0 -8 -6 -14 -14 -14 -9 0 -10 4 -2 14 6 7 12 13 14
13 1 0 2 -6 2 -13z m333 -197 c6 -11 8 -20 6 -20 -3 0 -10 9 -16 20 -6 11 -8
20 -6 20 3 0 10 -9 16 -20z m-30 -3 c0 -5 -7 -6 -16 -3 -8 3 -12 2 -9 -3 3 -5
1 -12 -5 -16 -5 -3 -10 0 -10 7 0 10 -2 10 -9 -1 -6 -9 -11 -10 -15 -2 -4 6 2
15 15 19 29 11 49 11 49 -1z m-28 -54 c-6 -3 -9 -10 -5 -16 3 -7 3 -9 -2 -5
-5 5 -17 -6 -27 -23 -10 -16 -23 -27 -28 -24 -9 6 -14 -8 -11 -27 2 -12 -24
-9 -37 4 -9 9 -10 4 -3 -20 7 -21 6 -34 -1 -38 -6 -4 -9 -3 -5 2 3 5 -1 20 -8
34 -12 22 -10 26 21 51 18 14 31 29 28 32 -3 3 4 10 15 17 12 6 21 7 20 3 -4
-23 3 -23 22 1 12 15 24 24 28 20 3 -4 0 -9 -7 -11z m-21 -90 c13 -16 12 -17
-3 -4 -10 7 -18 15 -18 17 0 8 8 3 21 -13z m-16 -13 c3 -5 1 -10 -4 -10 -6 0
-11 5 -11 10 0 6 2 10 4 10 3 0 8 -4 11 -10z m-12 -24 c7 3 1 -4 -12 -15 -13
-12 -27 -19 -30 -15 -3 4 0 9 7 11 6 3 12 12 13 21 0 11 2 12 6 4 2 -6 10 -10
16 -6z m-72 -83 c12 -16 12 -17 -1 -7 -8 6 -22 14 -30 17 -13 5 -12 6 1 6 9 1
23 -7 30 -16z m-14 -28 c0 -8 -4 -15 -9 -15 -10 0 -11 14 -1 23 9 10 10 9 10
-8z m54 -12 c12 -16 12 -17 -2 -6 -9 7 -20 9 -24 5 -5 -4 -5 -1 -1 6 9 16 11
15 27 -5z m24 -53 c3 -5 1 -10 -4 -10 -6 0 -11 5 -11 10 0 6 2 10 4 10 3 0 8
-4 11 -10z m418 -51 c2 -8 6 -20 11 -27 4 -7 6 -16 3 -19 -3 -2 -10 5 -17 16
-6 12 -8 21 -5 21 3 0 0 10 -6 23 -9 17 -9 19 0 11 7 -6 13 -18 14 -25z m7
-63 c0 5 4 2 10 -6 5 -8 5 -19 1 -25 -6 -9 -7 -31 -1 -37 4 -5 7 -58 3 -58 -5
0 -24 50 -29 78 -3 14 -1 21 5 18 5 -4 12 -2 16 4 3 5 0 10 -8 10 -8 0 -18 7
-21 16 -5 14 -4 15 9 4 8 -7 15 -9 15 -4z m-20 -121 c7 -9 8 -15 2 -15 -5 0
-12 7 -16 15 -3 8 -4 15 -2 15 2 0 9 -7 16 -15z m-464 -120 c1 -8 -4 -11 -11
-9 -10 4 -12 -1 -8 -15 3 -12 10 -18 17 -14 7 3 6 1 -1 -7 -15 -16 -22 -11
-28 19 -2 13 2 24 10 28 8 3 12 10 8 17 -3 6 -2 7 2 3 5 -4 10 -14 11 -22z
m19 -104 c3 -5 2 -12 -3 -15 -5 -3 -9 1 -9 9 0 17 3 19 12 6z m-79 -93 c-9
-12 -16 -18 -16 -12 0 6 3 14 8 18 4 4 8 12 8 17 3 20 6 23 11 12 2 -7 -3 -23
-11 -35z m63 19 c12 -15 12 -17 -3 -11 -9 3 -16 13 -16 22 0 8 1 13 3 11 1 -2
9 -12 16 -22z m-60 -140 c-17 -18 -21 -19 -29 -7 -12 19 -7 25 23 26 l26 2
-20 -21z m98 -34 c0 -7 -4 -13 -8 -13 -4 0 -9 6 -12 13 -3 8 0 14 7 14 7 0 13
-6 13 -14z m-17 -30 c0 -5 -7 -16 -15 -26 -10 -15 -18 -17 -32 -8 -11 6 -13
11 -5 11 8 0 10 5 6 13 -6 9 -4 9 8 -1 13 -10 17 -10 22 3 6 16 16 21 16 8z
m-44 -55 c4 -7 -2 -18 -17 -27 -13 -9 -32 -24 -41 -33 -10 -10 -18 -14 -18 -8
0 5 11 17 25 26 14 9 22 20 19 25 -3 5 2 6 10 3 9 -3 16 -2 16 4 0 6 -6 13
-12 15 -10 4 -10 6 -1 6 6 1 15 -4 19 -11z m22 -38 c-7 -11 -15 -15 -17 -9 -2
6 3 15 10 20 20 12 21 11 7 -11z m482 -36 c0 -20 -17 -26 -24 -8 -3 8 -2 12 4
9 14 -9 12 8 -2 25 -11 12 -10 12 5 1 9 -7 17 -19 17 -27z m-40 6 c0 -5 -5
-10 -11 -10 -5 0 -7 5 -4 10 3 6 8 10 11 10 2 0 4 -4 4 -10z m-555 -34 c0 -14
-3 -22 -7 -20 -4 3 -7 16 -6 29 3 30 11 23 13 -9z m86 7 c-12 -20 -14 -14 -5
12 4 9 9 14 11 11 3 -2 0 -13 -6 -23z m29 -94 c0 -5 -4 -9 -8 -9 -5 0 -9 7 -9
15 0 8 4 12 9 9 4 -3 8 -9 8 -15z m380 -74 c0 -12 -19 -12 -23 0 -4 9 -1 12 9
8 7 -3 14 -7 14 -8z m-40 -41 c0 -8 -19 -13 -24 -6 -3 5 1 9 9 9 8 0 15 -2 15
-3z m-20 -54 c0 -5 -2 -10 -4 -10 -3 0 -8 5 -11 10 -3 6 -1 10 4 10 6 0 11 -4
11 -10z m0 -32 c0 -5 -5 -6 -11 -2 -8 5 -10 -1 -5 -19 3 -14 2 -29 -4 -32 -6
-4 -7 1 -3 12 6 16 5 16 -10 4 -16 -13 -16 -12 -3 14 8 16 13 32 10 37 -3 4 2
5 10 2 9 -3 16 -10 16 -16z m40 12 c0 -5 0 -12 0 -15 0 -14 -13 -8 -16 8 -1 9
2 17 7 17 5 0 9 -4 9 -10z m-70 -80 c8 -5 11 -10 5 -10 -5 0 -17 5 -25 10 -8
5 -10 10 -5 10 6 0 17 -5 25 -10z m0 -34 c-7 -7 -14 -6 -21 1 -9 9 -7 12 9 10
14 -1 18 -5 12 -11z m14 -23 c-7 -2 -10 -12 -7 -22 3 -10 -1 -22 -8 -27 -9 -5
-10 -2 -6 10 4 10 1 19 -9 23 -12 4 -11 8 8 18 13 6 25 10 28 7 3 -3 0 -7 -6
-9z m-344 3 c0 -2 -8 -10 -17 -17 -16 -13 -17 -12 -4 4 13 16 21 21 21 13z
m-18 -77 c-3 -27 -8 -39 -17 -35 -7 2 -19 -1 -26 -7 -11 -10 -11 -9 0 5 7 10
18 15 23 11 7 -4 9 6 6 25 -2 17 0 34 6 36 6 2 11 5 11 5 0 1 -1 -17 -3 -40z
m305 -13 c-7 -13 -15 -22 -19 -20 -10 6 9 44 21 44 5 0 4 -11 -2 -24z m-262
-45 c-9 -8 -36 -10 -30 -2 2 4 11 8 20 8 8 0 13 -3 10 -6z m-14 -73 c-10 -11
-11 -9 -5 6 6 15 4 17 -6 11 -9 -6 -11 -4 -5 4 5 9 10 10 18 2 8 -8 7 -14 -2
-23z m144 -28 c3 -5 1 -10 -4 -10 -6 0 -11 5 -11 10 0 6 2 10 4 10 3 0 8 -4
11 -10z m-20 -28 c-3 -3 -11 0 -18 7 -9 10 -8 11 6 5 10 -3 15 -9 12 -12z
m-80 -92 c3 -5 1 -10 -4 -10 -6 0 -11 5 -11 10 0 6 2 10 4 10 3 0 8 -4 11 -10z
m35 -25 c0 -8 -4 -15 -8 -15 -5 0 -9 7 -9 15 0 8 4 15 9 15 4 0 8 -7 8 -15z"/>
<path d="M3860 4271 c9 -6 10 -11 3 -11 -15 0 -43 -28 -43 -43 0 -7 7 -3 16 8
8 11 20 20 27 20 17 0 15 28 -3 32 -13 4 -13 3 0 -6z"/>
<path d="M6430 7819 c0 -5 5 -7 10 -4 6 3 10 8 10 11 0 2 -4 4 -10 4 -5 0 -10
-5 -10 -11z"/>
<path d="M5946 7713 c-6 -14 -5 -15 5 -6 7 7 10 15 7 18 -3 3 -9 -2 -12 -12z"/>
<path d="M5836 7687 c3 -10 9 -15 12 -12 3 3 0 11 -7 18 -10 9 -11 8 -5 -6z"/>
<path d="M5966 7688 c3 -5 10 -6 15 -3 13 9 11 12 -6 12 -8 0 -12 -4 -9 -9z"/>
<path d="M5795 7680 c-3 -5 -1 -10 4 -10 6 0 11 5 11 10 0 6 -2 10 -4 10 -3 0
-8 -4 -11 -10z"/>
<path d="M5890 7676 c0 -14 -3 -16 -13 -7 -11 8 -13 6 -12 -9 1 -11 5 -23 10
-27 4 -5 5 -2 1 5 -6 10 -2 13 19 12 3 -1 13 6 21 15 9 8 20 13 25 10 5 -4 9
-1 9 4 0 13 -10 14 -30 1 -9 -6 -17 -5 -22 3 -5 8 -8 6 -8 -7z"/>
<path d="M5495 7560 c-3 -5 -1 -10 4 -10 6 0 11 5 11 10 0 6 -2 10 -4 10 -3 0
-8 -4 -11 -10z"/>
<path d="M5566 7498 c6 -9 44 -6 44 3 0 4 -11 6 -24 5 -13 0 -22 -4 -20 -8z"/>
<path d="M2790 7413 c5 -2 8 -9 4 -14 -3 -5 0 -9 6 -9 15 0 7 23 -8 26 -7 1
-8 0 -2 -3z"/>
<path d="M5235 7400 c3 -5 8 -10 11 -10 2 0 4 5 4 10 0 6 -5 10 -11 10 -5 0
-7 -4 -4 -10z"/>
<path d="M7920 7380 c-9 -6 -10 -10 -3 -10 6 0 15 5 18 10 8 12 4 12 -15 0z"/>
<path d="M9126 7378 c5 -7 -17 -12 -38 -9 -4 0 -5 -6 -1 -14 4 -12 9 -13 19
-4 11 9 20 7 40 -6 15 -10 23 -12 19 -4 -6 9 -3 10 10 5 16 -6 16 -5 3 16 -13
19 -64 36 -52 16z m39 -7 c3 -5 1 -12 -5 -16 -5 -3 -10 1 -10 9 0 18 6 21 15
7z"/>
<path d="M5615 7280 c-3 -5 -1 -10 4 -10 6 0 11 5 11 10 0 6 -2 10 -4 10 -3 0
-8 -4 -11 -10z"/>
<path d="M9140 7241 c-10 -21 1 -37 19 -27 10 6 34 -18 26 -26 -3 -3 4 -13 15
-23 18 -17 20 -17 14 -2 -3 9 -11 17 -17 17 -6 0 -2 7 9 15 14 11 15 14 3 9
-10 -3 -20 -1 -24 5 -3 6 2 11 12 12 16 0 16 1 -2 9 -11 5 -15 9 -10 9 11 1
-15 21 -27 21 -4 0 -12 -9 -18 -19z m33 -4 c3 -8 0 -14 -7 -14 -7 0 -13 6 -13
14 0 7 4 13 8 13 4 0 9 -6 12 -13z"/>
<path d="M1495 7221 c-3 -5 -2 -12 3 -15 5 -3 9 1 9 9 0 17 -3 19 -12 6z"/>
<path d="M5315 7120 c-4 -6 -10 -8 -14 -6 -4 3 -8 -1 -8 -9 0 -13 3 -13 18 1
13 12 18 12 22 2 4 -8 6 -7 6 5 1 19 -14 23 -24 7z"/>
<path d="M9190 7100 c0 -5 5 -10 11 -10 5 0 7 5 4 10 -3 6 -8 10 -11 10 -2 0
-4 -4 -4 -10z"/>
<path d="M5271 7030 c-8 -4 -24 -7 -37 -5 -13 1 -24 -2 -24 -7 0 -5 8 -8 18
-7 38 3 45 0 32 -16 -7 -9 -8 -15 -2 -15 5 0 13 7 16 16 4 10 12 14 22 10 15
-6 15 -4 3 11 -7 10 -14 19 -14 20 0 1 -7 -2 -14 -7z"/>
<path d="M113 7009 c-2 -23 3 -25 10 -4 4 8 3 16 -1 19 -4 3 -9 -4 -9 -15z"/>
<path d="M66 6968 c3 -5 10 -6 15 -3 13 9 11 12 -6 12 -8 0 -12 -4 -9 -9z"/>
<path d="M5390 6909 c0 -5 5 -7 10 -4 6 3 10 8 10 11 0 2 -4 4 -10 4 -5 0 -10
-5 -10 -11z"/>
<path d="M9170 6886 c0 -2 7 -7 16 -10 8 -3 12 -2 9 4 -6 10 -25 14 -25 6z"/>
<path d="M5425 6820 c-3 -5 -3 -10 2 -10 4 0 1 -5 -7 -10 -8 -5 -10 -10 -4
-10 17 0 37 27 25 34 -5 4 -12 2 -16 -4z"/>
<path d="M100 6782 c0 -6 -6 -10 -12 -8 -7 1 -10 1 -5 -1 4 -3 4 -10 1 -16 -4
-7 1 -4 11 5 11 10 16 21 12 24 -4 4 -7 2 -7 -4z"/>
<path d="M9176 6741 c-3 -5 1 -11 9 -14 9 -4 12 -1 8 9 -6 16 -10 17 -17 5z"/>
<path d="M5216 6713 c-6 -14 -5 -15 5 -6 7 7 10 15 7 18 -3 3 -9 -2 -12 -12z"/>
<path d="M9162 6607 c-8 -10 -6 -13 7 -13 11 0 17 6 14 13 -3 7 -6 13 -8 13
-1 0 -7 -6 -13 -13z"/>
<path d="M9215 6600 c-3 -6 1 -7 9 -4 18 7 21 14 7 14 -6 0 -13 -4 -16 -10z"/>
<path d="M5230 6446 c0 -2 7 -7 16 -10 8 -3 12 -2 9 4 -6 10 -25 14 -25 6z"/>
<path d="M316 6421 c-4 -5 -2 -12 3 -15 5 -4 12 -2 15 3 4 5 2 12 -3 15 -5 4
-12 2 -15 -3z"/>
<path d="M8637 6243 c-4 -3 -7 -11 -7 -17 0 -6 5 -5 12 2 6 6 9 14 7 17 -3 3
-9 2 -12 -2z"/>
<path d="M5136 6178 c3 -5 10 -6 15 -3 13 9 11 12 -6 12 -8 0 -12 -4 -9 -9z"/>
<path d="M7814 6156 c1 -8 5 -18 8 -22 4 -3 5 1 4 10 -1 8 -5 18 -8 22 -4 3
-5 -1 -4 -10z"/>
<path d="M8010 6156 c0 -8 4 -17 9 -20 5 -4 7 3 4 14 -6 23 -13 26 -13 6z"/>
<path d="M8206 6158 c3 -5 10 -6 15 -3 13 9 11 12 -6 12 -8 0 -12 -4 -9 -9z"/>
<path d="M7756 6142 c-2 -4 -1 -14 3 -21 6 -10 10 -9 14 3 6 16 -8 32 -17 18z"/>
<path d="M7913 6125 c0 -8 4 -12 9 -9 5 3 6 10 3 15 -9 13 -12 11 -12 -6z"/>
<path d="M5272 5998 c-15 -15 -15 -28 -1 -28 5 0 7 5 4 10 -3 6 1 10 9 10 9 0
16 5 16 10 0 14 -13 13 -28 -2z"/>
<path d="M471 5892 c-8 -15 -7 -18 9 -17 28 2 33 10 16 24 -12 10 -17 9 -25
-7z"/>
<path d="M7280 5880 c-14 -11 -20 -20 -14 -20 14 0 50 27 44 33 -3 3 -16 -3
-30 -13z"/>
<path d="M744 5804 c1 -8 5 -16 8 -20 4 -3 4 -13 1 -22 -4 -12 -1 -11 10 3 10
12 12 24 6 31 -5 6 -7 13 -4 16 3 2 -1 5 -9 5 -7 0 -13 -6 -12 -13z"/>
<path d="M1176 5728 c3 -5 10 -6 15 -3 13 9 11 12 -6 12 -8 0 -12 -4 -9 -9z"/>
<path d="M1605 5729 c-4 -6 -5 -12 -2 -15 2 -3 7 2 10 11 7 17 1 20 -8 4z"/>
<path d="M1346 5702 c-2 -4 4 -8 14 -8 10 0 16 4 14 8 -3 4 -9 8 -14 8 -5 0
-11 -4 -14 -8z"/>
<path d="M2421 5564 c0 -11 3 -14 6 -6 3 7 2 16 -1 19 -3 4 -6 -2 -5 -13z"/>
<path d="M4198 4523 c7 -3 16 -2 19 1 4 3 -2 6 -13 5 -11 0 -14 -3 -6 -6z"/>
<path d="M4115 4450 c-3 -6 1 -7 9 -4 18 7 21 14 7 14 -6 0 -13 -4 -16 -10z"/>
<path d="M3760 4165 c-7 -9 -8 -15 -2 -15 5 0 12 7 16 15 3 8 4 15 2 15 -2 0
-9 -7 -16 -15z"/>
<path d="M3665 4089 c-4 -6 -5 -12 -2 -15 2 -3 7 2 10 11 7 17 1 20 -8 4z"/>
<path d="M3733 3948 c3 -17 19 -28 30 -21 9 5 -11 33 -24 33 -5 0 -8 -6 -6
-12z"/>
<path d="M3741 3586 c-9 -11 -9 -16 1 -22 7 -4 10 -4 6 1 -4 4 -3 14 3 22 6 7
9 13 6 13 -2 0 -10 -6 -16 -14z"/>
<path d="M3686 3387 c3 -10 9 -15 12 -12 3 3 0 11 -7 18 -10 9 -11 8 -5 -6z"/>
<path d="M3680 3306 c0 -2 7 -7 16 -10 8 -3 12 -2 9 4 -6 10 -25 14 -25 6z"/>
<path d="M3675 3280 c-3 -5 -1 -10 4 -10 6 0 11 5 11 10 0 6 -2 10 -4 10 -3 0
-8 -4 -11 -10z"/>
<path d="M3640 3199 c0 -5 5 -7 10 -4 6 3 10 8 10 11 0 2 -4 4 -10 4 -5 0 -10
-5 -10 -11z"/>
<path d="M3614 3180 c0 -13 4 -16 10 -10 7 7 7 13 0 20 -6 6 -10 3 -10 -10z"/>
<path d="M3734 3071 c6 -9 -16 -86 -27 -97 -10 -10 -9 -24 2 -24 5 0 15 20 22
44 7 25 17 43 21 40 4 -3 5 2 2 10 -3 9 -1 16 5 16 20 0 12 16 -9 17 -11 1
-18 -2 -16 -6z"/>
<path d="M3635 3060 c-3 -6 1 -7 9 -4 18 7 21 14 7 14 -6 0 -13 -4 -16 -10z"/>
<path d="M3690 2921 c0 -6 4 -12 8 -15 5 -3 9 1 9 9 0 8 -4 15 -9 15 -4 0 -8
-4 -8 -9z"/>
<path d="M3748 2892 c20 -22 25 -21 16 2 -3 9 -12 16 -20 16 -11 0 -10 -4 4
-18z"/>
<path d="M3685 2879 c-4 -6 -4 -13 -1 -16 3 -4 6 -1 6 6 0 7 5 9 12 5 7 -4 8
-3 4 4 -9 15 -13 15 -21 1z"/>
<path d="M3730 2840 c-9 -6 -10 -10 -3 -10 6 0 15 5 18 10 8 12 4 12 -15 0z"/>
<path d="M3717 2729 c6 -23 9 -24 16 -5 3 8 0 17 -7 19 -10 4 -12 -1 -9 -14z"/>
<path d="M4130 2730 c0 -5 5 -10 11 -10 5 0 7 5 4 10 -3 6 -8 10 -11 10 -2 0
-4 -4 -4 -10z"/>
<path d="M4075 2590 c-3 -6 1 -7 9 -4 18 7 21 14 7 14 -6 0 -13 -4 -16 -10z"/>
<path d="M3683 2515 c0 -8 4 -12 9 -9 4 3 8 9 8 15 0 5 -4 9 -8 9 -5 0 -9 -7
-9 -15z"/>
<path d="M3683 2471 c0 -11 5 -18 9 -15 4 3 5 11 1 19 -7 21 -12 19 -10 -4z"/>
<path d="M3778 2442 c-3 -9 -1 -26 3 -37 8 -22 9 -22 14 17 4 31 -10 47 -17
20z"/>
<path d="M3707 2409 c7 -7 15 -10 18 -7 3 3 -2 9 -12 12 -14 6 -15 5 -6 -5z"/>
<path d="M3815 2269 c-4 -5 -13 -8 -21 -5 -8 3 -14 2 -15 -2 0 -4 -2 -15 -4
-24 -2 -10 2 -15 10 -12 10 4 12 -1 8 -15 -4 -16 -1 -21 13 -20 11 0 14 3 7 6
-7 2 -13 9 -13 14 0 6 9 5 21 -1 11 -7 23 -9 27 -6 3 3 1 6 -5 6 -6 0 -9 14
-8 30 3 32 -9 48 -20 29z m11 -24 c0 -29 -4 -30 -31 -9 -20 16 -20 16 3 9 12
-3 22 -3 21 2 -2 11 0 23 4 23 2 0 3 -11 3 -25z"/>
<path d="M3810 2141 c0 -6 4 -13 10 -16 6 -3 7 1 4 9 -7 18 -14 21 -14 7z"/>
</g>
</svg>
